<?xml version="1.0" encoding="utf-8"?>
<!-- Generator: Adobe Illustrator 18.1.1, SVG Export Plug-In . SVG Version: 6.00 Build 0)  -->
<!DOCTYPE svg PUBLIC "-//W3C//DTD SVG 1.1//EN" "http://www.w3.org/Graphics/SVG/1.1/DTD/svg11.dtd">
<svg version="1.1" id="Blue" xmlns="http://www.w3.org/2000/svg" xmlns:xlink="http://www.w3.org/1999/xlink" x="0px" y="0px"
	 viewBox="0 0 633 163" enable-background="new 0 0 633 163" xml:space="preserve">
<g>
	<g>
		<path fill="#3A5A98" d="M201.9,11.1h29.3v7.5h-20.8v11.6h16.9v7.4h-16.9v17.6h-8.5V11.1z"/>
		<path fill="#3A5A98" d="M241.3,16.8c-3.2,0-5.1-2-5.1-5c0-3,1.8-5,5.1-5c3.3,0,5.1,2,5.1,5C246.4,14.8,244.6,16.8,241.3,16.8z
			 M237.1,55.2V22.9l8.3-1.2v33.5H237.1z"/>
		<path fill="#3A5A98" d="M274.5,55.2V35.4c0-4.8-1.9-6.4-5.6-6.4c-2.9,0-5.6,1.5-7.2,3v23.2h-8.3V22.8l8.3-1.1c0,0,0,4.9,0,5.1
			c2.9-3.2,6.8-5.2,10.7-5.2c6.6,0,10.4,4.2,10.4,11.2v22.4H274.5z"/>
		<path fill="#3A5A98" d="M312.3,8.1l8.3-1.1v48.2h-8.3c0,0,0-2.8,0-3.2c-2.2,2.1-5.1,4.2-9.2,4.2c-8.6,0-14.2-7-14.2-17.1
			c0-10.4,7.2-17.6,16.4-17.6c2.3,0,4.9,0.4,6.9,1.1V8.1z M306.2,28.3c-5.6,0-8.7,4.6-8.7,10.6c0,6.3,3.2,10.4,8.2,10.4
			c2.8,0,4.9-1,6.7-2.7c0,0.3,0-16.4,0-16.4C310.7,29,308.6,28.3,306.2,28.3z"/>
		<path fill="#3A5A98" d="M353.6,22.7v19.8c0,4.8,2,6.3,5.5,6.3c3,0,5.6-1.3,7.1-2.8V22.7h8.3V55l-8.3,1.1c0,0,0-4.5,0-4.8
			c-2.7,2.9-6.6,4.9-10.7,4.9c-6.3,0-10.2-4.2-10.2-11.2V22.7H353.6z"/>
		<path fill="#3A5A98" d="M393.1,56.3c-4.2,0-9.4-1.2-12.6-3l1.8-6.5c3.2,1.8,7.4,3,11,3c3.2,0,5.4-1.3,5.4-3.6
			c0-2.5-2.8-3.5-6.6-4.4c-6.1-1.4-11-3.9-11-10.1c0-6.1,5.1-10.2,13-10.2c4,0,8.8,1.1,11.8,2.6l-1.8,6.5c-3.2-1.6-7.3-2.7-10.2-2.7
			c-3,0-4.9,1.1-4.9,3.2c0,2.5,2.8,3.3,6.6,4.2c6.2,1.5,11.1,3.9,11.1,10.2C406.6,51.8,401.4,56.3,393.1,56.3z"/>
		<path fill="#3A5A98" d="M444,56.3c-9.5,0-16.4-6.5-16.4-17.3c0-10.7,7.3-17.4,16.9-17.4c9.6,0,16.4,6.6,16.4,17.4
			C460.9,49.6,453.6,56.3,444,56.3z M444.2,28.3c-5.4,0-8.4,4.4-8.4,10.7c0,6.2,3.1,10.6,8.5,10.6c5.4,0,8.3-4.2,8.3-10.5
			C452.6,32.7,449.5,28.3,444.2,28.3z"/>
		<path fill="#3A5A98" d="M488.2,55.2V35.4c0-4.8-1.9-6.4-5.6-6.4c-2.9,0-5.6,1.5-7.2,3v23.2h-8.3V22.8l8.3-1.1c0,0,0,4.9,0,5.1
			c2.9-3.2,6.8-5.2,10.7-5.2c6.6,0,10.4,4.2,10.4,11.2v22.4H488.2z"/>
	</g>
	<g>
		<g>
			<path fill="#3A5A98" d="M201.9,84.6h46.4v11.8h-32.9v18.4h26.8v11.7h-26.8v27.8h-13.5V84.6z"/>
			<path fill="#3A5A98" d="M280.5,148.4c-3.7,4.5-8.1,7.6-14.5,7.6c-9.3,0-15.9-6.4-15.9-14.5c0-9.5,6.9-17.5,30.4-18.3V122
				c0-6.9-2.9-9.8-10.3-9.8c-5.2,0-11.6,2.3-17.1,5.5l-2.7-10.4c5-3.1,13-6,21.5-6c15.8,0,22,7,21.6,21.2v18.4
				c0,3.9,0.7,4.5,4.6,4.7l-1,9.9c-9.8,1.1-14.4-1.9-16.3-7H280.5z M280.5,130.1c-12.8,1.6-17.5,4.1-17.5,9.6c0,3.9,3,6.7,7.7,6.7
				c4.1,0,7.5-1.9,9.8-4.5V130.1z"/>
			<path fill="#3A5A98" d="M328.9,156c-16.7,0-26.7-10.4-26.7-27.2c0-16.7,10.9-27.5,27.1-27.5c7,0,13.1,1.6,17.7,4.3l-2.8,10.6
				c-4.2-2.7-9.1-4.1-13.9-4.1c-9.5,0-14.6,6.5-14.6,16.4c0,10.5,5.9,16.6,14.6,16.6c5.4,0,10.3-1.4,14.3-4l2.1,10.7
				C342.3,154.4,335.8,156,328.9,156z"/>
			<path fill="#3A5A98" d="M364.4,131.5c0.6,8.4,6.2,14.1,15.4,14.1c5.5,0,11.4-1.8,16.1-4.7l1.7,10.9c-4.9,2.7-11.7,4.2-18.6,4.2
				c-16.5,0-27.4-10.5-27.4-26.9c0-16.7,11.2-27.9,26.5-27.9c13.6,0,21.2,8.3,21.2,20.9c0,2.8-0.4,6.4-1.1,8.6
				c-0.1,0-33.7,0.4-33.7,0.4V131.5z M386.8,123.3c0-0.2,0-0.8,0-0.9c0-6.9-3-11.3-9.8-11.3c-7.3,0-11.6,5.9-12.3,12.3L386.8,123.3z
				"/>
			<path fill="#3A5A98" d="M432.7,155.9c-3.3,0-8.1-0.7-11.5-1.8l-12.6,1.9V79.8l13.2-1.8c0,0,0,29.2,0,29.8
				c3.5-3.3,8.1-6.6,14.4-6.6c13.6,0,22.5,11,22.5,26.9C458.6,144.5,447.3,155.9,432.7,155.9z M432.3,112.3c-4.4,0-7.7,1.7-10.6,4.2
				c0-0.3,0,26,0,26c2.5,1.9,5.8,2.9,9.7,2.9c8.8,0,13.8-7.1,13.8-16.7C445.3,118.6,440.5,112.3,432.3,112.3z"/>
			<path fill="#3A5A98" d="M490.9,156c-15.1,0-26-10.3-26-27.3c0-17,11.5-27.5,26.7-27.5c15.2,0,26,10.5,26,27.4
				C517.5,145.4,505.9,156,490.9,156z M491.1,111.7c-8.6,0-13.3,6.9-13.3,16.8c0,9.8,4.9,16.7,13.5,16.7c8.5,0,13.2-6.7,13.2-16.6
				C504.5,118.7,499.6,111.7,491.1,111.7z"/>
			<path fill="#3A5A98" d="M549.9,156c-15.1,0-26-10.3-26-27.3c0-17,11.5-27.5,26.7-27.5c15.2,0,26,10.5,26,27.4
				C576.6,145.4,565,156,549.9,156z M550.1,111.7c-8.6,0-13.3,6.9-13.3,16.8c0,9.8,4.9,16.7,13.5,16.7c8.5,0,13.2-6.7,13.2-16.6
				C563.5,118.7,558.6,111.7,550.1,111.7z"/>
			<path fill="#3A5A98" d="M598.8,129.6v24.8h-13.2V79.8l13.2-1.8v47.7h0.2l18.4-22.9h15.7l-21.3,24.4l21.4,27h-15.7L599,129.6
				H598.8z"/>
		</g>
	</g>
	<g>
		<path fill="#3B5998" d="M154,0H9C4,0,0,4,0,9v145c0,5,4,9,9,9h145c5,0,9-4,9-9V9C163,4,159,0,154,0z"/>
		<path fill="#FFFFFF" d="M133.7,99.9l3.2-24.6h-24.4V59.6c0-7.1,2-12,12.2-12l13,0v-22c-2.3-0.3-10-1-19-1
			c-18.8,0-31.6,11.5-31.6,32.5v18.1H65.8v24.6h21.2V163h25.4V99.9H133.7z"/>
	</g>
</g>
</svg>
