<?xml version="1.0" encoding="utf-8"?>
<!-- Generator: Adobe Illustrator 18.1.1, SVG Export Plug-In . SVG Version: 6.00 Build 0)  -->
<!DOCTYPE svg PUBLIC "-//W3C//DTD SVG 1.1//EN" "http://www.w3.org/Graphics/SVG/1.1/DTD/svg11.dtd">
<svg version="1.1" xmlns="http://www.w3.org/2000/svg" xmlns:xlink="http://www.w3.org/1999/xlink" x="0px" y="0px"
	 viewBox="0 0 3015.4 936.9" enable-background="new 0 0 3015.4 936.9" xml:space="preserve">
<g id="Layer_1">
</g>
<g id="vertical">
</g>
<g id="horizontal">
	<g>
		<g>
			<g>
				<path fill="#489AC5" d="M1324.4,523.2c-103,0-185.9-75.3-185.9-187.5s82.9-187,185.9-187c54.2,0,95.4,20.6,124.1,49.3
					c4.3,3.8,6,9.8,6,15.2c0,11.9-8.7,21.1-20.6,21.1c-5.4,0-10.3-2.2-14.6-6.5c-22.8-24.4-59.1-39-94.9-39
					c-79.1,0-139.3,60.7-139.3,146.9c0,85.6,60.2,147.4,139.3,147.4c43.4,0,79.1-21.1,97-39v-73.7h-107.9
					c-10.8,0-19.5-8.7-19.5-20.6c0-10.8,8.7-19.5,19.5-19.5h120.3c17.9,0,32.5,14.6,32.5,32.5v71.5
					C1466.4,490.2,1388.4,523.2,1324.4,523.2z"/>
				<path fill="#489AC5" d="M1731.6,368.8l77.5,117.6c2.2,3.8,3.3,7.6,3.3,11.4c0,10.8-9.2,21.7-22.2,21.7c-7,0-13.6-3.3-17.9-9.8
					l-88.3-137.1h-72.1v124.7c0,12.5-9.8,22.2-22.8,22.2c-12.5,0-22.2-9.8-22.2-22.2v-310c0-17.9,14.6-32.5,32.5-32.5h112.7
					c66.1,0,113.3,42.3,113.3,108.9C1825.4,328.7,1781,364.4,1731.6,368.8z M1611.8,194.8V333h94.9c42.8,0,72.1-28.7,72.1-69.4
					s-29.3-68.8-72.1-68.8H1611.8z"/>
				<path fill="#489AC5" d="M2191.4,519.4c-9.2,0-17.9-5.4-21.7-14.6l-27.1-68.8h-179.9l-27.1,68.8c-3.8,9.2-12.5,14.6-21.7,14.6
					c-14.1,0-24.4-11.4-24.4-23.8c0-2.7,0.5-6,1.6-8.7l124.7-311.1c6-14.6,20.1-24.4,36.9-24.4c15.7,0,29.8,9.8,35.8,24.4
					l125.7,311.1c1.1,2.7,1.6,6,1.6,8.7C2215.8,506.4,2206,519.4,2191.4,519.4z M2052.6,201.3l-77,194.6h153.4L2052.6,201.3z"/>
				<path fill="#489AC5" d="M2471.1,194.8h-98.6v302.4c0,12.5-9.8,22.2-22.8,22.2c-12.5,0-22.2-9.8-22.2-22.2V194.8h-98.1
					c-10.8,0-19.5-8.7-19.5-20.6c0-10.8,8.7-19.5,19.5-19.5h241.7c10.8,0,19.5,8.7,19.5,20.6
					C2490.6,186.1,2481.9,194.8,2471.1,194.8z"/>
				<path fill="#489AC5" d="M2589.6,519.4c-12.5,0-22.2-9.8-22.2-22.2V173.1c0-11.9,9.8-21.7,23.3-21.7c11.9,0,21.7,9.8,21.7,21.7
					v324.1C2612.4,509.7,2602.7,519.4,2589.6,519.4z"/>
				<path fill="#489AC5" d="M2991.1,519.4c-9.2,0-17.9-5.4-21.7-14.6l-27.1-68.8h-179.9l-27.1,68.8c-3.8,9.2-12.5,14.6-21.7,14.6
					c-14.1,0-24.4-11.4-24.4-23.8c0-2.7,0.5-6,1.6-8.7l124.7-311.1c6-14.6,20.1-24.4,36.9-24.4c15.7,0,29.8,9.8,35.8,24.4
					l125.7,311.1c1.1,2.7,1.6,6,1.6,8.7C3015.4,506.4,3005.7,519.4,2991.1,519.4z M2852.3,201.3l-77,194.6h153.4L2852.3,201.3z"/>
			</g>
			<g>
				<path fill="#489AC5" d="M1202.6,709.8h-22.9v70.3c0,2.9-2.3,5.2-5.3,5.2c-2.9,0-5.2-2.3-5.2-5.2v-70.3h-22.8
					c-2.5,0-4.5-2-4.5-4.8c0-2.5,2-4.5,4.5-4.5h56.2c2.5,0,4.5,2,4.5,4.8C1207.1,707.8,1205.1,709.8,1202.6,709.8z"/>
				<path fill="#489AC5" d="M1251.8,786c-22.8,0-34.3-13.5-34.3-34.1v-47.1c0-2.8,2.3-5,5.4-5c2.8,0,5,2.3,5,5v46.9
					c0,15.4,8.3,25.1,23.8,25.1s23.8-9.7,23.8-25.1v-46.9c0-2.8,2.3-5,5.4-5c2.8,0,5,2.3,5,5v47C1286.1,772.7,1274.6,786,1251.8,786
					z"/>
				<path fill="#489AC5" d="M1357.3,709.8h-22.9v70.3c0,2.9-2.3,5.2-5.3,5.2c-2.9,0-5.2-2.3-5.2-5.2v-70.3h-22.8
					c-2.5,0-4.5-2-4.5-4.8c0-2.5,2-4.5,4.5-4.5h56.2c2.5,0,4.5,2,4.5,4.8C1361.8,707.8,1359.8,709.8,1357.3,709.8z"/>
				<path fill="#489AC5" d="M1405.1,786c-24.9,0-41.7-18.6-41.7-43.5c0-24.8,16.8-43.5,41.7-43.5c24.8,0,41.7,18.6,41.7,43.5
					C1446.8,767.4,1429.9,786,1405.1,786z M1405.1,708.4c-18.9,0-30.9,14.5-30.9,34.1c0,19.5,12,34.1,30.9,34.1
					c18.8,0,30.9-14.6,30.9-34.1C1436,722.9,1423.9,708.4,1405.1,708.4z"/>
				<path fill="#489AC5" d="M1499.8,750.2l18,27.3c0.5,0.9,0.8,1.8,0.8,2.6c0,2.5-2.1,5-5.2,5c-1.6,0-3.1-0.8-4.2-2.3l-20.5-31.9
					H1472v29c0,2.9-2.3,5.2-5.3,5.2c-2.9,0-5.2-2.3-5.2-5.2V708c0-4.2,3.4-7.6,7.6-7.6h26.2c15.4,0,26.3,9.8,26.3,25.3
					C1521.6,740.9,1511.3,749.2,1499.8,750.2z M1472,709.8v32.1h22.1c10,0,16.8-6.7,16.8-16.1c0-9.5-6.8-16-16.8-16H1472z"/>
				<path fill="#489AC5" d="M1541.7,785.3c-2.9,0-5.2-2.3-5.2-5.2v-75.4c0-2.8,2.3-5,5.4-5c2.8,0,5,2.3,5,5v75.4
					C1547,783,1544.7,785.3,1541.7,785.3z"/>
				<path fill="#489AC5" d="M1628.9,785.3c-2,0-4-1-5.2-2.6l-47.6-65.1v62.6c0,2.9-2.3,5.2-5.3,5.2c-2.9,0-5.2-2.3-5.2-5.2V706
					c0-3.3,2.8-6.3,6.7-6.3c2.1,0,4.3,1,5.5,2.8l46.9,63.6v-61.4c0-2.8,2.3-5,5.4-5c2.8,0,5,2.3,5,5v74.6
					C1635.2,782.4,1632.7,785.3,1628.9,785.3z"/>
				<path fill="#489AC5" d="M1692,786.2c-23.9,0-43.2-17.5-43.2-43.6c0-26.1,19.3-43.5,43.2-43.5c12.6,0,22.2,4.8,28.9,11.5
					c1,0.9,1.4,2.3,1.4,3.5c0,2.8-2,4.9-4.8,4.9c-1.3,0-2.4-0.5-3.4-1.5c-5.3-5.7-13.7-9.1-22.1-9.1c-18.4,0-32.4,14.1-32.4,34.1
					c0,19.9,14,34.3,32.4,34.3c10.1,0,18.4-4.9,22.6-9.1v-17.1h-25.1c-2.5,0-4.5-2-4.5-4.8c0-2.5,2-4.5,4.5-4.5h28
					c4.2,0,7.6,3.4,7.6,7.6v16.6C1725.1,778.5,1706.9,786.2,1692,786.2z"/>
				<path fill="#489AC5" d="M1838.5,785.3c-2.1,0-4.2-1.3-5-3.4l-6.3-16h-41.8l-6.3,16c-0.9,2.1-2.9,3.4-5,3.4
					c-3.3,0-5.7-2.6-5.7-5.5c0-0.6,0.1-1.4,0.4-2l29-72.3c1.4-3.4,4.7-5.7,8.6-5.7c3.7,0,6.9,2.3,8.3,5.7l29.2,72.3
					c0.3,0.6,0.4,1.4,0.4,2C1844.1,782.2,1841.9,785.3,1838.5,785.3z M1806.2,711.3l-17.9,45.2h35.7L1806.2,711.3z"/>
				<path fill="#489AC5" d="M1918,785.3c-2,0-4-1-5.2-2.6l-47.6-65.1v62.6c0,2.9-2.3,5.2-5.3,5.2c-2.9,0-5.2-2.3-5.2-5.2V706
					c0-3.3,2.8-6.3,6.7-6.3c2.1,0,4.3,1,5.5,2.8l46.9,63.6v-61.4c0-2.8,2.3-5,5.4-5c2.8,0,5,2.3,5,5v74.6
					C1924.3,782.4,1921.8,785.3,1918,785.3z"/>
				<path fill="#489AC5" d="M1971.9,784.5h-21.2c-4.2,0-7.6-3.4-7.6-7.6V708c0-4.2,3.4-7.6,7.6-7.6h21.2c26.1,0,43.1,18.3,43.1,42.1
					C2015,766.5,1998,784.5,1971.9,784.5z M1971.9,709.8h-18.3v65.4h18.3c20.4,0,32.3-14.6,32.3-32.6
					C2004.1,724.4,1992.7,709.8,1971.9,709.8z"/>
				<path fill="#489AC5" d="M2097.6,751.1h-23.3v29c0,2.9-2.3,5.2-5.3,5.2c-2.9,0-5.2-2.3-5.2-5.2V708c0-4.2,3.4-7.6,7.6-7.6h26.2
					c16.9,0,26.3,11.6,26.3,25.3C2124,739.5,2114.3,751.1,2097.6,751.1z M2096.4,709.8h-22.1v32h22.1c10,0,16.8-6.6,16.8-16
					C2113.1,716.3,2106.3,709.8,2096.4,709.8z"/>
				<path fill="#489AC5" d="M2139.9,785.3c-2.9,0-5.2-2.3-5.2-5.2v-75.4c0-2.8,2.3-5,5.4-5c2.8,0,5,2.3,5,5v75.4
					C2145.2,783,2142.9,785.3,2139.9,785.3z"/>
				<path fill="#489AC5" d="M2225.8,785.3c-2.1,0-4.2-1.3-5-3.4l-6.3-16h-41.8l-6.3,16c-0.9,2.1-2.9,3.4-5,3.4
					c-3.3,0-5.7-2.6-5.7-5.5c0-0.6,0.1-1.4,0.4-2l29-72.3c1.4-3.4,4.7-5.7,8.6-5.7c3.7,0,6.9,2.3,8.3,5.7l29.2,72.3
					c0.3,0.6,0.4,1.4,0.4,2C2231.5,782.2,2229.2,785.3,2225.8,785.3z M2193.5,711.3l-17.9,45.2h35.7L2193.5,711.3z"/>
				<path fill="#489AC5" d="M2305.3,785.3c-2,0-4-1-5.2-2.6l-47.6-65.1v62.6c0,2.9-2.3,5.2-5.3,5.2c-2.9,0-5.2-2.3-5.2-5.2V706
					c0-3.3,2.8-6.3,6.7-6.3c2.1,0,4.3,1,5.5,2.8l46.9,63.6v-61.4c0-2.8,2.3-5,5.4-5c2.8,0,5,2.3,5,5v74.6
					C2311.6,782.4,2309.1,785.3,2305.3,785.3z"/>
				<path fill="#489AC5" d="M2367.2,786c-24.9,0-41.7-18.6-41.7-43.5c0-24.8,16.8-43.5,41.7-43.5c24.8,0,41.7,18.6,41.7,43.5
					C2408.9,767.4,2392,786,2367.2,786z M2367.2,708.4c-18.9,0-30.9,14.5-30.9,34.1c0,19.5,12,34.1,30.9,34.1
					c18.8,0,30.9-14.6,30.9-34.1C2398.1,722.9,2386,708.4,2367.2,708.4z"/>
				<path fill="#489AC5" d="M2521.7,785.3c-2.1,0-4.2-1.3-5-3.4l-6.3-16h-41.8l-6.3,16c-0.9,2.1-2.9,3.4-5,3.4
					c-3.3,0-5.7-2.6-5.7-5.5c0-0.6,0.1-1.4,0.4-2l29-72.3c1.4-3.4,4.7-5.7,8.6-5.7c3.7,0,6.9,2.3,8.3,5.7l29.2,72.3
					c0.3,0.6,0.4,1.4,0.4,2C2527.3,782.2,2525.1,785.3,2521.7,785.3z M2489.4,711.3l-17.9,45.2h35.7L2489.4,711.3z"/>
				<path fill="#489AC5" d="M2599.3,711.1c0.9,1,1.4,2.3,1.4,3.7c0,2.6-2.1,5-4.9,5c-1.3,0-2.6-0.5-3.5-1.6
					c-4.9-5.9-13.2-9.7-21-9.7c-18.4,0-32.4,14.1-32.4,34.1c0,19.9,14,34.1,32.4,34.1c7.9,0,15.8-3.4,21-9.6c0.9-1,2.3-1.6,3.5-1.6
					c2.9,0,4.9,2.5,4.9,5.2c0,1.3-0.5,2.5-1.4,3.5c-6.6,6.8-15.5,11.8-28.1,11.8c-24.2,0-43.2-17.6-43.2-43.5
					c0-25.8,19-43.5,43.2-43.5C2583.8,699.1,2592.9,704.1,2599.3,711.1z"/>
				<path fill="#489AC5" d="M2678.7,785.3c-2.1,0-4.2-1.3-5-3.4l-6.3-16h-41.8l-6.3,16c-0.9,2.1-2.9,3.4-5,3.4
					c-3.3,0-5.7-2.6-5.7-5.5c0-0.6,0.1-1.4,0.4-2l29-72.3c1.4-3.4,4.7-5.7,8.6-5.7c3.7,0,6.9,2.3,8.3,5.7l29.2,72.3
					c0.3,0.6,0.4,1.4,0.4,2C2684.4,782.2,2682.1,785.3,2678.7,785.3z M2646.5,711.3l-17.9,45.2h35.7L2646.5,711.3z"/>
				<path fill="#489AC5" d="M2723.8,784.5h-21.2c-4.2,0-7.6-3.4-7.6-7.6V708c0-4.2,3.4-7.6,7.6-7.6h21.2c26.1,0,43.1,18.3,43.1,42.1
					C2766.8,766.5,2749.8,784.5,2723.8,784.5z M2723.8,709.8h-18.3v65.4h18.3c20.4,0,32.3-14.6,32.3-32.6
					C2756,724.4,2744.5,709.8,2723.8,709.8z"/>
				<path fill="#489AC5" d="M2831.9,784.5h-43.7c-4.2,0-7.6-3.4-7.6-7.6V708c0-4.2,3.4-7.6,7.6-7.6h43.7c2.5,0,4.5,2,4.5,4.8
					c0,2.5-2,4.5-4.5,4.5H2791v27.1h39.9c2.5,0,4.5,2,4.5,4.8c0,2.5-2,4.5-4.5,4.5H2791v29h40.8c2.5,0,4.5,2,4.5,4.5
					C2836.4,782.5,2834.4,784.5,2831.9,784.5z"/>
				<path fill="#489AC5" d="M2926.8,785.3c-2.9,0-5.2-2.3-5.2-5.2v-64.8l-28.2,68.3c-0.4,1-1.4,1.6-2.6,1.6c-1,0-2-0.6-2.4-1.6
					l-28.1-68.3v64.8c0,2.9-2.3,5.2-5.3,5.2c-2.9,0-5.2-2.3-5.2-5.2v-71.8c0-4.5,3.9-8.4,8.7-8.4c3.4,0,6.9,2,8.3,5.3l24.1,58.6
					l24.2-58.6c1.4-3.3,4.8-5.3,8.3-5.3c4.8,0,8.7,3.9,8.7,8.4v71.8C2932.1,783,2929.9,785.3,2926.8,785.3z"/>
				<path fill="#489AC5" d="M3011.3,707.4l-28.2,41.6v31.1c0,2.9-2.3,5.2-5.3,5.2c-2.9,0-5.2-2.3-5.2-5.2V749l-28.4-41.6
					c-0.5-0.8-0.9-1.6-0.9-2.6c0-2.4,1.9-5,5-5c1.5,0,3.3,0.8,4.3,2.1l25.1,37.7l25.1-37.7c0.9-1.3,2.5-2,4-2c2.8,0,5.2,2.3,5.2,4.9
					C3012.1,705.6,3011.8,706.6,3011.3,707.4z"/>
			</g>
			<path fill="#AEAEAE" d="M3013.4,616.2H1142.1c-3.1,0-5.6-2.5-5.6-5.6l0,0c0-3.1,2.5-5.6,5.6-5.6h1871.3c3.1,0,5.6,2.5,5.6,5.6
				l0,0C3019,613.7,3016.5,616.2,3013.4,616.2z"/>
		</g>
		<g>
			<g enable-background="new    ">
				<path fill="#489AC5" d="M490.5,10.8c0.9-0.3,1.8-0.5,2.8-0.6c0.8-0.1,1.6-0.1,2.4,0c2,0.2,4,3.3,4.8,4.3
					c0.8,1.1,0.7,2.6-0.4,4.3c-1.7,2.3-3.5,4.6-5.4,6.8c-20.9,24.3-55.1,33.4-85.5,42.9c-5.2,1.6-10.4,3-15.3,4.2
					c-3.7,7.6-9.9,15.7-17.6,16.4c-4.7,0.4-19.3-13.3-18.3-16.3c0.8-2.3,5-7,8.4-8.1c1-0.3,2.1-0.5,3.1-0.6c1.7-0.1,3.5-0.3,5.4-0.6
					c0.1,0,0.2,0,0.4-0.1c4.6-0.6,9.7-1.6,15.2-2.8c5-1.1,10.3-2.6,15.7-4.2c20.3-6.3,38.3-11,56.2-22.5c6.3-4,14.7-9.9,19.1-15.5
					c0.9-1.2,1.7-2.2,2.5-3.3c0.1-0.1,0.2-0.3,0.3-0.4C485.7,13,488,11.6,490.5,10.8z"/>
				<path fill="#489AC5" d="M496.4,5.1l6-4.1c0.3-0.1,0.7-0.2,1-0.3c2.6-0.8,4.1-0.8,5.2-0.4L981.7,180c3.6,1.4,5.6,3.9,5.6,6.9
					l-3,516.4c0,3-1.5,6.2-4.2,9.3c-12.6,14.2-51.3,45.9-105,62.5c-13.4,4.1-27.7,7.3-42.7,9.1c-4.5,0.5-8.7,0.1-11.9-1.1
					L340.7,600.7c-2.7-1-4.2-2.9-4.2-5.2l3-519.3c0-1.2,1.2-2.5,3-3.4l18.8-9.2c0.3-0.1,0.7-0.2,1-0.3c2.7-0.8,4.3-0.8,5.4-0.4
					l7.7,2.9c-1.9,0.3-3.7,0.5-5.4,0.6c-0.7,0.2-1.4,0.4-2,0.6c-5.2,1.6-7.6,3.6-8.3,5.7c-1.1,3,1.9,5.2,6.6,4.8
					c7.7-0.7,17-2.2,27.3-4.7l9.1,3.5l99.6,38l340.4,130.3c5.6,2.1,13,2.7,20.9,1.5c3.1-0.5,6.2-1,9.3-1.7
					c5.4-1.1,10.8-2.5,16.2-4.2c18.7-5.8,37.5-15.2,52.9-29.8c3.2-3,5.1-6,5.9-8.8c1.2-6.5-1.6-10.9-7.7-13.2
					C855,155.6,568.8,46.4,494.8,18.1l-10-4.1L496.4,5.1z M880.8,739.7l0.5-467.2c-1.4-3.1-7-4.5-12.6-2.7c-0.9,0.3-1.8,0.6-2.6,1
					c-3.7,1.8-5.9,4.4-5.9,6.7l-0.5,467.2c0,3.7,5.5,5.1,11.2,3.4c0.9-0.3,1.8-0.6,2.6-1C876.9,745.3,879.2,742.7,880.8,739.7"/>
				<path fill="#FFFFFF" d="M880.8,739.7l0.5-467.2c-1.4-3.1-7-4.5-12.6-2.7c-0.9,0.3-1.8,0.6-2.6,1c-3.7,1.8-5.9,4.4-5.9,6.7
					l-0.5,467.2c0,3.7,5.5,5.1,11.2,3.4c0.9-0.3,1.8-0.6,2.6-1C876.9,745.3,879.2,742.7,880.8,739.7"/>
				<path fill="#FFFFFF" d="M393.8,72.7c4.9-1.2,10-2.6,15.3-4.2c30.4-9.4,64.6-18.5,85.5-42.9c1.6-1.9,3.1-3.8,4.6-5.8
					c80.3,30.7,357.4,136.4,441.1,168.4c6.1,2.3,8.8,6.7,7.7,13.2c-0.8,2.8-2.7,5.8-5.9,8.8c-15.5,14.6-34.2,24-52.9,29.8
					c-5.4,1.7-10.9,3.1-16.2,4.2c-3.1,0.6-6.3,1.2-9.3,1.7c-7.9,1.2-15.3,0.7-20.9-1.5L502.3,114.2l-99.6-38l-9.1-3.5L393.8,72.7z"
					/>
				<g>
					<path fill="#489AC5" d="M899.2,214.7c1-1.7,1-3.3,0.1-4.5c-0.5-0.7-1.3-1.3-2.4-1.7l-410-158.3c-2.4-0.9-5.3-1-8.5,0
						c-0.6,0.2-1.3,0.4-2.5,1c-7.1,3.1-9.2,9.1-3.8,11.1l409.8,158.4c2.5,1,5.9,0.8,9-0.2C894.5,219.5,897.8,217.3,899.2,214.7z"/>
				</g>
			</g>
			<g enable-background="new    ">
				<path fill="#AEAEAE" d="M322.5,86.8c0.9-0.3,1.8-0.5,2.8-0.6c0.8-0.1,1.6-0.1,2.4,0c2,0.2,4,3.3,4.8,4.3
					c0.8,1.1,0.7,2.6-0.4,4.3c-1.7,2.3-3.5,4.6-5.4,6.8c-20.9,24.3-55.1,33.4-85.5,42.9c-5.2,1.6-10.4,3-15.3,4.2
					c-3.7,7.6-9.9,15.7-17.6,16.4c-4.7,0.4-19.3-13.3-18.3-16.3c0.8-2.3,5-7,8.4-8.1c1-0.3,2.1-0.5,3.1-0.6c1.7-0.1,3.5-0.3,5.4-0.6
					c0.1,0,0.2,0,0.4-0.1c4.6-0.6,9.7-1.6,15.2-2.8c5-1.1,10.3-2.6,15.7-4.2c20.3-6.3,38.3-11,56.2-22.5c6.3-4,14.7-9.9,19.1-15.5
					c0.9-1.2,1.7-2.2,2.5-3.3c0.1-0.1,0.2-0.3,0.3-0.4C317.7,88.9,320,87.5,322.5,86.8z"/>
				<path fill="#AEAEAE" d="M328.4,81.1l6-4.1c0.3-0.1,0.7-0.2,1-0.3c2.6-0.8,4.1-0.8,5.2-0.4L813.7,256c3.6,1.4,5.6,3.9,5.6,6.9
					l-3,516.4c0,3-1.5,6.2-4.2,9.3c-12.6,14.2-51.3,45.9-105,62.5c-13.4,4.1-27.7,7.3-42.7,9.1c-4.5,0.5-8.7,0.1-11.9-1.1
					L172.7,676.7c-2.7-1-4.2-2.9-4.2-5.2l3-519.3c0-1.2,1.2-2.5,3-3.4l18.8-9.2c0.3-0.1,0.7-0.2,1-0.3c2.7-0.8,4.3-0.8,5.4-0.4
					l7.7,2.9c-1.9,0.3-3.7,0.5-5.4,0.6c-0.7,0.2-1.4,0.4-2,0.6c-5.2,1.6-7.6,3.6-8.3,5.7c-1.1,3,1.9,5.2,6.6,4.8
					c7.7-0.7,17-2.2,27.3-4.7l9.1,3.5l99.6,38l340.4,130.3c5.6,2.1,13,2.7,20.9,1.5c3.1-0.5,6.2-1,9.3-1.7
					c5.4-1.1,10.8-2.5,16.2-4.2c18.7-5.8,37.5-15.2,52.9-29.8c3.2-3,5.1-6,5.9-8.8c1.2-6.5-1.6-10.9-7.7-13.2
					C687,231.6,400.8,122.4,326.8,94.1l-10-4.1L328.4,81.1z M712.8,815.7l0.5-467.2c-1.4-3.1-7-4.5-12.6-2.7c-0.9,0.3-1.8,0.6-2.6,1
					c-3.7,1.8-5.9,4.4-5.9,6.7l-0.5,467.2c0,3.7,5.5,5.1,11.2,3.4c0.9-0.3,1.8-0.6,2.6-1C708.9,821.3,711.2,818.7,712.8,815.7"/>
				<path fill="#FFFFFF" d="M712.8,815.7l0.5-467.2c-1.4-3.1-7-4.5-12.6-2.7c-0.9,0.3-1.8,0.6-2.6,1c-3.7,1.8-5.9,4.4-5.9,6.7
					l-0.5,467.2c0,3.7,5.5,5.1,11.2,3.4c0.9-0.3,1.8-0.6,2.6-1C708.9,821.3,711.2,818.7,712.8,815.7"/>
				<path fill="#FFFFFF" d="M225.9,148.6c4.9-1.2,10-2.6,15.3-4.2c30.4-9.4,64.6-18.5,85.5-42.9c1.6-1.9,3.1-3.8,4.6-5.8
					c80.3,30.7,357.4,136.4,441.1,168.4c6.1,2.3,8.8,6.7,7.7,13.2c-0.8,2.8-2.7,5.8-5.9,8.8c-15.5,14.6-34.2,24-52.9,29.8
					c-5.4,1.7-10.9,3.1-16.2,4.2c-3.1,0.6-6.3,1.2-9.3,1.7c-7.9,1.2-15.3,0.7-20.9-1.5L334.3,190.1l-99.6-38l-9.1-3.5L225.9,148.6z"
					/>
				<g>
					<path fill="#AEAEAE" d="M731.2,290.7c1-1.7,1-3.3,0.1-4.5c-0.5-0.7-1.3-1.3-2.4-1.7l-410-158.3c-2.4-0.9-5.3-1-8.5,0
						c-0.6,0.2-1.3,0.4-2.5,1c-7.1,3.1-9.2,9.1-3.8,11.1l409.8,158.4c2.5,1,5.9,0.8,9-0.2C726.5,295.4,729.8,293.3,731.2,290.7z"/>
				</g>
			</g>
			<g enable-background="new    ">
				<path fill="#489AC5" d="M154,163.2c0.9-0.3,1.8-0.5,2.8-0.6c0.8-0.1,1.6-0.1,2.4,0c2,0.2,4,3.3,4.8,4.3c0.8,1.1,0.7,2.6-0.4,4.3
					c-1.7,2.3-3.5,4.6-5.4,6.8c-20.9,24.3-55.1,33.4-85.5,42.9c-5.2,1.6-10.4,3-15.3,4.2c-3.7,7.6-9.9,15.7-17.6,16.4
					c-4.7,0.4-19.3-13.3-18.3-16.3c0.8-2.3,5-7,8.4-8.1c1-0.3,2.1-0.5,3.1-0.6c1.7-0.1,3.5-0.3,5.4-0.6c0.1,0,0.2,0,0.4-0.1
					c4.6-0.6,9.7-1.6,15.2-2.8c5-1.1,10.3-2.6,15.7-4.2c20.3-6.3,38.3-11,56.2-22.5c6.3-4,14.7-9.9,19.1-15.5
					c0.9-1.2,1.7-2.2,2.5-3.3c0.1-0.1,0.2-0.3,0.3-0.4C149.2,165.4,151.5,164,154,163.2z"/>
				<path fill="#489AC5" d="M159.9,157.5l6-4.1c0.3-0.1,0.7-0.2,1-0.3c2.6-0.8,4.1-0.8,5.2-0.4l473.1,179.8c3.6,1.4,5.6,3.9,5.6,6.9
					l-3,516.4c0,3-1.5,6.2-4.2,9.3c-12.6,14.2-51.3,45.9-105,62.5c-13.4,4.1-27.7,7.3-42.7,9.1c-4.5,0.5-8.7,0.1-11.9-1.1L4.2,753.1
					c-2.7-1-4.2-2.9-4.2-5.2l3-519.3c0-1.2,1.2-2.5,3-3.4l18.8-9.2c0.3-0.1,0.7-0.2,1-0.3c2.7-0.8,4.3-0.8,5.4-0.4l7.7,2.9
					c-1.9,0.3-3.7,0.5-5.4,0.6c-0.7,0.2-1.4,0.4-2,0.6c-5.2,1.6-7.6,3.6-8.3,5.7c-1.1,3,1.9,5.2,6.6,4.8c7.7-0.7,17-2.2,27.3-4.7
					l9.1,3.5l99.6,38l340.4,130.3c5.6,2.1,13,2.7,20.9,1.5c3.1-0.5,6.2-1,9.3-1.7c5.4-1.1,10.8-2.5,16.2-4.2
					c18.7-5.8,37.5-15.2,52.9-29.8c3.2-3,5.1-6,5.9-8.8c1.2-6.5-1.6-10.9-7.7-13.2C518.5,308,232.4,198.9,158.3,170.6l-10-4.1
					L159.9,157.5z M544.3,892.1l0.5-467.2c-1.4-3.1-7-4.5-12.6-2.7c-0.9,0.3-1.8,0.6-2.6,1c-3.7,1.8-5.9,4.4-5.9,6.7l-0.5,467.2
					c0,3.7,5.5,5.1,11.2,3.4c0.9-0.3,1.8-0.6,2.6-1C540.4,897.8,542.7,895.2,544.3,892.1"/>
				<path fill="#FFFFFF" d="M544.3,892.1l0.5-467.2c-1.4-3.1-7-4.5-12.6-2.7c-0.9,0.3-1.8,0.6-2.6,1c-3.7,1.8-5.9,4.4-5.9,6.7
					l-0.5,467.2c0,3.7,5.5,5.1,11.2,3.4c0.9-0.3,1.8-0.6,2.6-1C540.4,897.8,542.7,895.2,544.3,892.1"/>
				<path fill="#FFFFFF" d="M57.4,225.1c4.9-1.2,10-2.6,15.3-4.2c30.4-9.4,64.6-18.5,85.5-42.9c1.6-1.9,3.1-3.8,4.6-5.8
					c80.3,30.7,357.4,136.4,441.1,168.4c6.1,2.3,8.8,6.7,7.7,13.2c-0.8,2.8-2.7,5.8-5.9,8.8c-15.5,14.6-34.2,24-52.9,29.8
					c-5.4,1.7-10.9,3.1-16.2,4.2c-3.1,0.6-6.3,1.2-9.3,1.7c-7.9,1.2-15.3,0.7-20.9-1.5L165.9,266.6l-99.6-38l-9.1-3.5L57.4,225.1z"
					/>
				<g>
					<path fill="#489AC5" d="M562.8,367.2c1-1.7,1-3.3,0.1-4.5c-0.5-0.7-1.3-1.3-2.4-1.7l-410-158.3c-2.4-0.9-5.3-1-8.5,0
						c-0.6,0.2-1.3,0.4-2.5,1c-7.1,3.1-9.2,9.1-3.8,11.1l409.8,158.4c2.5,1,5.9,0.8,9-0.2C558,371.9,561.3,369.8,562.8,367.2z"/>
				</g>
			</g>
			<g>
				<g enable-background="new    ">
					<g>
						<path fill="#FFFFFF" d="M605.2,433.6c-0.2,0-0.4,0-0.5,0v-23.2c0.2,0,0.4,0,0.5,0C605.2,417.3,605.2,426.6,605.2,433.6z"/>
					</g>
					<g>
						<path fill="#FFFFFF" d="M604.5,453c-0.2,0-0.4,0-0.5,0c0.5-1,0.8-2.3,0.8-3.4c0-1.7-0.6-2.6-1.3-2.6c0.2,0,0.3,0,0.5,0
							c0.8,0,1.4,1,1.4,2.6C605.4,450.8,605.1,452.1,604.5,453z"/>
					</g>
					<g>
						<path fill="#FFFFFF" d="M603.9,483.8c-0.2,0-0.3,0-0.5,0c0.8-0.5,1.5-2,1.5-3.5c0-1.4-0.4-2.2-1.1-2.2c0.2,0,0.4,0,0.5,0
							c0.6,0,1.1,0.8,1.1,2.2C605.4,481.8,604.7,483.4,603.9,483.8z"/>
					</g>
					<g>
						<path fill="#FFFFFF" d="M603.5,447c0.8,0,1.3,1,1.3,2.6c0,1.1-0.3,2.4-0.8,3.4l-19,35.5l18.3-10.3c0.2-0.1,0.3-0.1,0.4-0.1
							c0.6,0,1.1,0.8,1.1,2.2c0,1.5-0.7,3.1-1.5,3.5l-22.2,12.5c-0.2,0.1-0.3,0.1-0.5,0.1c-0.7,0-1.3-0.9-1.3-2.5
							c0-1.1,0.3-2.3,0.8-3.2l19.4-36.2l-18.7,10.5c-0.2,0.1-0.3,0.1-0.5,0.1c-0.6,0-1.1-0.8-1.1-2.1c0-1.5,0.7-3.1,1.5-3.6
							l22.1-12.4C603.1,447,603.3,447,603.5,447z"/>
					</g>
					<g>
						<path fill="#FFFFFF" d="M604.3,478.2c-0.1,0-0.3,0-0.5,0.1c-0.2,0-0.3,0-0.5,0c0.2-0.1,0.3-0.1,0.4-0.1
							C604,478.2,604.1,478.2,604.3,478.2z"/>
					</g>
					<g>
						<path fill="#FFFFFF" d="M605.2,410.4c-0.2,0-0.4,0-0.5,0c0-1.8-0.7-2.9-1.6-2.9c0.2,0,0.3,0,0.5,0
							C604.5,407.4,605.2,408.6,605.2,410.4z"/>
					</g>
					<g>
						<path fill="#FFFFFF" d="M604,447c-0.2,0-0.4,0-0.5,0.1c-0.2,0-0.3,0-0.5,0c0.2-0.1,0.4-0.1,0.5-0.1
							C603.7,447,603.8,447,604,447z"/>
					</g>
					<g>
						<path fill="#FFFFFF" d="M603.3,436.9c-0.2,0-0.3,0-0.5,0c0.1,0,0.3,0,0.4-0.1c0.8-0.5,1.4-1.9,1.4-3.2c0.2,0,0.4,0,0.5,0
							c0,1.3-0.6,2.7-1.5,3.2C603.6,436.8,603.4,436.9,603.3,436.9z"/>
					</g>
					<g>
						<path fill="#FFFFFF" d="M603,407.4c0.9,0,1.6,1.2,1.6,2.9v23.2c0,1.3-0.6,2.7-1.4,3.2c-0.1,0.1-0.3,0.1-0.4,0.1
							c-0.5,0-0.9-0.7-0.9-1.8v-21.7l-8.1,4.5v21.2c0,1.3-0.6,2.7-1.4,3.2c-0.1,0.1-0.3,0.1-0.4,0.1c-0.5,0-0.9-0.7-0.9-1.8v-21.2
							l-8.6,4.8V446c0,1.3-0.6,2.7-1.4,3.2c-0.2,0.1-0.3,0.1-0.5,0.1c-0.6,0-1-0.7-1-1.7v-23.2c0-2.2,1-4.6,2.3-5.3l20.5-11.5
							C602.6,407.5,602.8,407.4,603,407.4z"/>
					</g>
					<g>
						<path fill="#FFFFFF" d="M603.5,407.4c-0.2,0-0.4,0.1-0.7,0.2c-0.2,0-0.3,0-0.5,0c0.2-0.1,0.5-0.2,0.7-0.2
							C603.2,407.4,603.4,407.4,603.5,407.4z"/>
					</g>
					<g>
						<path fill="#FFFFFF" d="M602.3,435.1c0,1.1,0.4,1.8,1,1.8c-0.2,0-0.3,0-0.5,0c-0.5,0-0.9-0.7-0.9-1.8
							C602,435.1,602.2,435.1,602.3,435.1z"/>
					</g>
					<g>
						<path fill="#FFFFFF" d="M602.3,413.5l0,21.7c-0.2,0-0.3,0-0.5,0v-21.7C602,413.5,602.2,413.5,602.3,413.5z"/>
					</g>
					<g>
						<path fill="#FFFFFF" d="M594.1,439.2c-0.1,0-0.2,0-0.3,0l0-21.2c0.1,0,0.2,0,0.3,0C594.1,424.3,594.1,432.8,594.1,439.2z"/>
					</g>
					<g>
						<path fill="#FFFFFF" d="M594.1,418c-0.1,0-0.2,0-0.3,0l8.1-4.5c0.2,0,0.3,0,0.5,0C599.9,414.8,596.8,417.3,594.1,418z"/>
					</g>
					<g>
						<path fill="#FFFFFF" d="M592.2,442.5c-0.1,0-0.2,0-0.3,0c0.1,0,0.3,0,0.4-0.1c0.8-0.5,1.4-1.9,1.4-3.2c0.1,0,0.2,0,0.3,0
							c0,1.3-0.6,2.7-1.5,3.2C592.5,442.5,592.3,442.5,592.2,442.5z"/>
					</g>
					<g>
						<path fill="#FFFFFF" d="M591.2,440.7c0,1.1,0.4,1.8,1,1.8c-0.1,0-0.2,0-0.3,0c-0.5,0-0.9-0.7-0.9-1.8
							C591.1,440.7,591.2,440.7,591.2,440.7z"/>
					</g>
					<g>
						<path fill="#FFFFFF" d="M591.2,419.5v21.2c-0.1,0-0.2,0-0.3,0v-21.2C591.1,419.5,591.2,419.5,591.2,419.5z"/>
					</g>
					<g>
						<path fill="#FFFFFF" d="M603.9,478.3l-18.7,10.3c0,0-0.1,0-0.1,0l18.3-10.3C603.5,478.3,603.7,478.3,603.9,478.3z"/>
					</g>
					<g>
						<path fill="#FFFFFF" d="M585.2,488.5c0,0-0.1,0-0.1,0l19-35.5c0.2,0,0.4,0,0.5,0C598.7,463.7,591,477.9,585.2,488.5z"/>
					</g>
					<g>
						<path fill="#FFFFFF" d="M582.4,424.4C582.4,424.4,582.4,424.4,582.4,424.4l8.6-4.8c0.1,0,0.2,0,0.3,0
							C588.6,421,585.4,423.6,582.4,424.4z"/>
					</g>
					<g>
						<path fill="#FFFFFF" d="M582.4,446C582.4,446,582.4,446,582.4,446l-0.1-21.7c0,0,0,0,0.1,0C582.4,430.9,582.4,439.5,582.4,446
							z"/>
					</g>
					<g>
						<path fill="#FFFFFF" d="M602.9,407.6l-21,11.5c0,0,0,0-0.1,0l20.5-11.5C602.5,407.6,602.7,407.6,602.9,407.6z"/>
					</g>
					<g>
						<path fill="#FFFFFF" d="M581.2,496.3C581.2,496.3,581.1,496.3,581.2,496.3l22.2-12.5c0.2,0,0.3,0,0.5,0
							C597.1,487.6,588.7,494.4,581.2,496.3z"/>
					</g>
					<g>
						<path fill="#FFFFFF" d="M581.1,449.2C581,449.2,581,449.2,581.1,449.2c0.7-0.4,1.3-1.8,1.3-3.2c0,0,0,0,0.1,0
							C582.4,447.4,581.8,448.8,581.1,449.2z"/>
					</g>
					<g>
						<path fill="#FFFFFF" d="M600,454.6l-19.8,36.2c0,0,0,0,0,0l19.4-36.2C599.7,454.6,599.8,454.6,600,454.6z"/>
					</g>
					<g>
						<path fill="#FFFFFF" d="M580.9,465.1C580.9,465.1,580.9,465.1,580.9,465.1l18.6-10.5c0.1,0,0.3,0,0.4,0
							C594.3,457.7,587.3,463.4,580.9,465.1z"/>
					</g>
					<g>
						<path fill="#FFFFFF" d="M603.5,447.1l-22.5,12.4c0,0,0,0,0,0l22.1-12.4C603.1,447.1,603.3,447.1,603.5,447.1z"/>
					</g>
					<g>
						<path fill="#FFFFFF" d="M580.7,496.4C580.6,496.4,580.6,496.4,580.7,496.4c0.1,0,0.3,0,0.5-0.1c0,0,0,0,0,0
							C581,496.4,580.8,496.4,580.7,496.4z"/>
					</g>
					<g>
						<path fill="#FFFFFF" d="M580.6,449.3C580.6,449.3,580.5,449.3,580.6,449.3c0.1,0,0.3,0,0.4-0.1c0,0,0,0,0,0
							C580.9,449.3,580.7,449.3,580.6,449.3z"/>
					</g>
					<g>
						<path fill="#FFFFFF" d="M580.5,465.2C580.4,465.2,580.4,465.2,580.5,465.2c0.1,0,0.3,0,0.4-0.1c0,0,0,0,0,0
							C580.8,465.2,580.6,465.2,580.5,465.2z"/>
					</g>
					<g>
						<path fill="#FFFFFF" d="M579.6,447.6c0,1.1,0.4,1.7,1,1.7c0,0,0,0,0,0C580,449.3,579.6,448.7,579.6,447.6L579.6,447.6z"/>
					</g>
					<g>
						<rect x="579.6" y="424.4" fill="#FFFFFF" width="0" height="23.2"/>
					</g>
					<g>
						<path fill="#FFFFFF" d="M603.5,407.4c0.9,0,1.6,1.2,1.6,2.9v23.2c0,1.3-0.6,2.7-1.5,3.2c-0.1,0.1-0.3,0.1-0.4,0.1
							c-0.6,0-1-0.7-1-1.8v-21.7l-8.2,4.5v21.2c0,1.3-0.6,2.7-1.5,3.2c-0.1,0.1-0.3,0.1-0.4,0.1c-0.6,0-1-0.7-1-1.8v-21.2l-8.8,4.8
							V446c0,1.3-0.6,2.7-1.4,3.2c-0.2,0.1-0.3,0.1-0.5,0.1c-0.6,0-1-0.7-1-1.7v-23.2c0-2.2,1-4.6,2.3-5.3l21-11.5
							C603.1,407.5,603.3,407.4,603.5,407.4z"/>
					</g>
					<g>
						<path fill="#FFFFFF" d="M581.9,419.1c-1.3,0.7-2.3,3.1-2.3,5.3h0C579.6,422.2,580.6,419.8,581.9,419.1
							C581.9,419.1,581.9,419.1,581.9,419.1z"/>
					</g>
					<g>
						<path fill="#FFFFFF" d="M579.4,493.9c0,1.6,0.6,2.5,1.3,2.5c0,0,0,0,0,0C579.9,496.4,579.4,495.6,579.4,493.9L579.4,493.9z"/>
					</g>
					<g>
						<path fill="#FFFFFF" d="M580.2,490.8c-0.5,0.9-0.8,2.1-0.8,3.2h0C579.4,492.9,579.7,491.6,580.2,490.8
							C580.2,490.8,580.2,490.8,580.2,490.8z"/>
					</g>
					<g>
						<path fill="#FFFFFF" d="M579.4,463.1c0,1.3,0.5,2.1,1.1,2.1c0,0,0,0,0,0C579.8,465.2,579.4,464.4,579.4,463.1L579.4,463.1z"/>
					</g>
					<g>
						<path fill="#FFFFFF" d="M604,447c0.8,0,1.4,1,1.4,2.6c0,1.1-0.3,2.4-0.8,3.4l-19.4,35.5l18.7-10.3c0.2-0.1,0.3-0.1,0.5-0.1
							c0.6,0,1.1,0.8,1.1,2.2c0,1.5-0.7,3.1-1.5,3.5l-22.7,12.5c-0.2,0.1-0.3,0.1-0.5,0.1c-0.7,0-1.3-0.9-1.3-2.5
							c0-1.1,0.3-2.3,0.8-3.2l19.8-36.2l-19,10.5c-0.2,0.1-0.3,0.1-0.5,0.1c-0.6,0-1.1-0.8-1.1-2.1c0-1.5,0.7-3.1,1.6-3.6l22.5-12.4
							C603.7,447,603.8,447,604,447z"/>
					</g>
					<g>
						<path fill="#FFFFFF" d="M580.9,459.5c-0.9,0.5-1.6,2.1-1.6,3.6h0C579.4,461.6,580,460,580.9,459.5
							C580.9,459.5,580.9,459.5,580.9,459.5z"/>
					</g>
				</g>
				<g enable-background="new    ">
					<g>
						<path fill="#FFFFFF" d="M600.5,535.3c-0.1,0-0.3,0-0.4,0c0.1,0,0.3,0,0.5-0.1c0.4-0.2,0.8-0.6,1.1-1.3c0.2,0,0.3,0,0.5,0
							c-0.3,0.7-0.7,1.1-1.1,1.3C600.9,535.3,600.7,535.3,600.5,535.3z"/>
					</g>
					<g>
						<path fill="#FFFFFF" d="M596.4,499.7c5.3,0,8.7,6.7,8.7,16.9c0,6.7-1.4,12.6-3.4,17.2c-0.3,0.7-0.7,1.1-1.1,1.3
							c-0.2,0.1-0.3,0.1-0.5,0.1c-0.6,0-1-0.7-1-1.9c0-0.7,0.1-1.4,0.4-2.1c1.7-3.8,2.7-8.8,2.7-13.2c0-7.7-2.6-12.5-6.7-12.5
							c-1.1,0-2.2,0.3-3.5,1c-5.9,3.3-10.2,13.1-10.2,22.9c0,5.3,1.5,8.9,2.7,10.4l5.1-2.9v-13.3c0-1.3,0.6-2.7,1.4-3.2
							c0.1-0.1,0.3-0.1,0.4-0.1c0.5,0,0.9,0.7,0.9,1.8v14.8c0,2.2-1,4.6-2.3,5.3l-5,2.8c-0.4,0.2-0.8,0.3-1.2,0.3
							c-3.1,0-4.9-7.4-4.9-14.4c0-12.7,5.2-25.9,13-30.2C593.6,500.1,595,499.7,596.4,499.7z"/>
					</g>
					<g>
						<path fill="#FFFFFF" d="M599.5,533.5c0,1.2,0.4,1.9,1,1.9c-0.1,0-0.3,0-0.4,0c-0.6,0-1-0.7-1-1.9
							C599.2,533.5,599.4,533.5,599.5,533.5z"/>
					</g>
					<g>
						<path fill="#FFFFFF" d="M600,531.4c-0.3,0.7-0.5,1.4-0.5,2.1c-0.1,0-0.3,0-0.4,0c0-0.7,0.1-1.4,0.4-2.1
							C599.7,531.4,599.8,531.4,600,531.4z"/>
					</g>
					<g>
						<path fill="#FFFFFF" d="M602.1,533.9c-0.2,0-0.3,0-0.5,0c2-4.7,3.4-10.5,3.4-17.2c0-10.2-3.3-16.9-8.7-16.9c0.1,0,0.2,0,0.4,0
							c5.5,0,8.9,6.7,8.9,16.9C605.6,523.3,604.1,529.2,602.1,533.9z"/>
					</g>
					<g>
						<path fill="#FFFFFF" d="M595.9,505.7c4.1,0,6.8,4.8,6.8,12.5c0,4.4-1,9.5-2.8,13.2c-0.1,0-0.3,0-0.4,0
							c1.7-3.8,2.7-8.8,2.7-13.2c0-7.7-2.6-12.5-6.7-12.5C595.7,505.7,595.8,505.7,595.9,505.7z"/>
					</g>
					<g>
						<path fill="#FFFFFF" d="M592.7,537.2c-0.1,0-0.2,0-0.3,0v-14.8c0.1,0,0.2,0,0.3,0C592.7,526.8,592.7,532.7,592.7,537.2z"/>
					</g>
					<g>
						<path fill="#FFFFFF" d="M592.4,506.7c-0.1,0-0.2,0-0.3,0c1.2-0.7,2.4-1,3.5-1c0.1,0,0.2,0,0.3,0
							C594.8,505.7,593.6,506,592.4,506.7z"/>
					</g>
					<g>
						<path fill="#FFFFFF" d="M596.7,499.7c-1.3,0-2.8,0.4-4.4,1.3c-0.1,0-0.2,0-0.3,0c1.5-0.9,3-1.3,4.3-1.3
							C596.5,499.7,596.6,499.7,596.7,499.7z"/>
					</g>
					<g>
						<path fill="#FFFFFF" d="M592.7,522.4c-0.1,0-0.2,0-0.3,0c0-1.1-0.4-1.8-0.9-1.8c0.1,0,0.2,0,0.3,0
							C592.3,520.6,592.7,521.3,592.7,522.4z"/>
					</g>
					<g>
						<path fill="#FFFFFF" d="M591.8,520.6c-0.1,0-0.3,0-0.4,0.1c-0.1,0-0.2,0-0.3,0c0.1-0.1,0.3-0.1,0.4-0.1
							C591.6,520.6,591.7,520.6,591.8,520.6z"/>
					</g>
					<g>
						<path fill="#FFFFFF" d="M590.4,542.5c-0.1,0-0.2,0-0.2,0c1.2-0.7,2.3-3.1,2.3-5.3c0.1,0,0.2,0,0.3,0
							C592.7,539.4,591.7,541.8,590.4,542.5z"/>
					</g>
					<g>
						<path fill="#FFFFFF" d="M589.9,523.9v13.3c-0.1,0-0.1,0-0.2,0v-13.3C589.8,523.9,589.8,523.9,589.9,523.9z"/>
					</g>
					<g>
						<path fill="#FFFFFF" d="M591.4,520.7c-0.8,0.5-1.5,1.9-1.5,3.2c-0.1,0-0.1,0-0.2,0c0-1.3,0.6-2.7,1.4-3.2
							C591.2,520.7,591.3,520.7,591.4,520.7z"/>
					</g>
					<g>
						<path fill="#FFFFFF" d="M585.4,545.3c0,0-0.1,0-0.1,0l5-2.8c0.1,0,0.2,0,0.2,0C588.9,543.3,587.1,544.8,585.4,545.3z"/>
					</g>
					<g>
						<path fill="#FFFFFF" d="M589.9,537.2l-5.2,2.9c0,0-0.1,0-0.1,0l5.1-2.9C589.8,537.2,589.8,537.2,589.9,537.2z"/>
					</g>
					<g>
						<path fill="#FFFFFF" d="M584.1,545.6c0,0-0.1,0-0.1,0c0.4,0,0.8-0.1,1.2-0.3c0,0,0.1,0,0.1,0
							C585,545.5,584.5,545.6,584.1,545.6z"/>
					</g>
					<g>
						<path fill="#FFFFFF" d="M584.7,540.1c0,0-0.1,0-0.1,0c-1.2-1.5-2.7-5.1-2.7-10.4c0,0,0,0,0.1,0
							C581.9,535,583.4,538.6,584.7,540.1z"/>
					</g>
					<g>
						<path fill="#FFFFFF" d="M581.9,529.6C581.9,529.6,581.9,529.6,581.9,529.6c-0.1-9.8,4.2-19.6,10.2-22.9c0.1,0,0.2,0,0.3,0
							C586.3,510.1,581.9,519.9,581.9,529.6z"/>
					</g>
					<g>
						<path fill="#FFFFFF" d="M579.1,531.2c0,7,1.9,14.4,5,14.4c0,0-0.1,0-0.1,0C580.9,545.6,579.1,538.2,579.1,531.2z"/>
					</g>
					<g>
						<path fill="#FFFFFF" d="M592.4,501c-7.9,4.4-13.3,17.5-13.3,30.2c0-12.7,5.2-25.9,13-30.2C592.2,501,592.3,501,592.4,501z"/>
					</g>
					<g>
						<path fill="#FFFFFF" d="M596.7,499.7c5.5,0,8.9,6.7,8.9,16.9c0,6.7-1.5,12.6-3.5,17.2c-0.3,0.7-0.7,1.1-1.1,1.3
							c-0.2,0.1-0.3,0.1-0.5,0.1c-0.6,0-1-0.7-1-1.9c0-0.7,0.2-1.4,0.5-2.1c1.7-3.8,2.8-8.8,2.8-13.2c0-7.7-2.7-12.5-6.8-12.5
							c-1.1,0-2.3,0.3-3.6,1c-6.1,3.3-10.4,13.1-10.4,22.9c0,5.3,1.5,8.9,2.8,10.4l5.2-2.9v-13.3c0-1.3,0.6-2.7,1.5-3.2
							c0.1-0.1,0.3-0.1,0.4-0.1c0.6,0,1,0.7,1,1.8v14.8c0,2.2-1,4.6-2.3,5.3l-5.1,2.8c-0.4,0.2-0.8,0.3-1.2,0.3c-3.2,0-5-7.4-5-14.4
							c0-12.7,5.3-25.9,13.3-30.2C593.9,500.1,595.4,499.7,596.7,499.7z"/>
					</g>
				</g>
				<g enable-background="new    ">
					<g>
						<path fill="#FFFFFF" d="M603.9,587.8c-0.2,0-0.3,0-0.5,0c0.8-0.5,1.5-2.1,1.5-3.5c0-1.4-0.4-2.2-1.1-2.2c0.2,0,0.4,0,0.5,0
							c0.6,0,1.1,0.8,1.1,2.2C605.4,585.7,604.7,587.3,603.9,587.8z"/>
					</g>
					<g>
						<path fill="#FFFFFF" d="M603.8,582.1c0.6,0,1.1,0.8,1.1,2.2c0,1.5-0.7,3.1-1.5,3.5l-22.4,12.6c-0.2,0.1-0.3,0.1-0.5,0.1
							c-0.6,0-1.1-0.8-1.1-2.1c0-1.5,0.7-3.1,1.5-3.6l22.4-12.6C603.5,582.1,603.6,582.1,603.8,582.1z"/>
					</g>
					<g>
						<path fill="#FFFFFF" d="M604.3,582.1c-0.1,0-0.3,0-0.4,0.1c-0.2,0-0.3,0-0.5,0c0.2-0.1,0.3-0.1,0.4-0.1
							C604,582.1,604.1,582.1,604.3,582.1z"/>
					</g>
					<g>
						<path fill="#FFFFFF" d="M603.9,552.2c-0.2,0-0.3,0-0.5,0c0.8-0.5,1.5-2,1.5-3.5c0-1.4-0.5-2.2-1.1-2.2c0.2,0,0.4,0,0.5,0
							c0.6,0,1.1,0.8,1.1,2.2C605.4,550.2,604.7,551.8,603.9,552.2z"/>
					</g>
					<g>
						<path fill="#FFFFFF" d="M603.8,546.5c0.6,0,1.1,0.8,1.1,2.2c0,1.5-0.7,3.1-1.5,3.5l-21,11.8v18.7c0,1.3-0.6,2.7-1.4,3.2
							c-0.2,0.1-0.3,0.1-0.5,0.1c-0.6,0-1-0.7-1-1.7V564c0-2.2,1-4.6,2.3-5.3l21.5-12.1C603.5,546.6,603.6,546.5,603.8,546.5z"/>
					</g>
					<g>
						<path fill="#FFFFFF" d="M604.3,546.5c-0.1,0-0.3,0-0.4,0.1c-0.2,0-0.3,0-0.5,0c0.2-0.1,0.3-0.1,0.4-0.1
							C604,546.5,604.1,546.5,604.3,546.5z"/>
					</g>
					<g>
						<path fill="#FFFFFF" d="M582.4,564C582.4,564,582.4,564,582.4,564l20.9-11.8c0.2,0,0.3,0,0.5,0
							C597.4,555.8,589.5,562.2,582.4,564z"/>
					</g>
					<g>
						<path fill="#FFFFFF" d="M582.4,582.7C582.4,582.7,582.4,582.7,582.4,582.7l-0.1-18.7c0,0,0,0,0.1,0
							C582.4,569.6,582.4,577.1,582.4,582.7z"/>
					</g>
					<g>
						<path fill="#FFFFFF" d="M603.9,546.7l-22,12.1c0,0,0,0-0.1,0l21.5-12.1C603.5,546.7,603.7,546.7,603.9,546.7z"/>
					</g>
					<g>
						<path fill="#FFFFFF" d="M581.1,585.9C581,585.9,581,585.9,581.1,585.9c0.7-0.4,1.3-1.8,1.3-3.2c0,0,0,0,0.1,0
							C582.4,584,581.8,585.4,581.1,585.9z"/>
					</g>
					<g>
						<path fill="#FFFFFF" d="M580.9,600.3C580.9,600.3,580.9,600.3,580.9,600.3l22.4-12.6c0.2,0,0.3,0,0.5,0
							C597,591.5,588.5,598.4,580.9,600.3z"/>
					</g>
					<g>
						<path fill="#FFFFFF" d="M603.9,582.2l-22.9,12.6c0,0,0,0,0,0l22.4-12.6C603.5,582.2,603.7,582.2,603.9,582.2z"/>
					</g>
					<g>
						<path fill="#FFFFFF" d="M580.6,586C580.6,586,580.5,586,580.6,586c0.1,0,0.3,0,0.4-0.1c0,0,0,0,0,0
							C580.9,586,580.7,586,580.6,586z"/>
					</g>
					<g>
						<path fill="#FFFFFF" d="M580.5,600.5C580.4,600.5,580.4,600.5,580.5,600.5c0.1,0,0.3,0,0.4-0.1c0,0,0,0,0,0
							C580.8,600.4,580.6,600.5,580.5,600.5z"/>
					</g>
					<g>
						<path fill="#FFFFFF" d="M579.6,584.3c0,1.1,0.4,1.7,1,1.7c0,0,0,0,0,0C580,586,579.6,585.3,579.6,584.3L579.6,584.3z"/>
					</g>
					<g>
						<rect x="579.6" y="564" fill="#FFFFFF" width="0" height="20.3"/>
					</g>
					<g>
						<path fill="#FFFFFF" d="M581.9,558.7c-1.3,0.7-2.3,3.1-2.3,5.3h0C579.6,561.8,580.6,559.4,581.9,558.7
							C581.9,558.7,581.9,558.7,581.9,558.7z"/>
					</g>
					<g>
						<path fill="#FFFFFF" d="M604.3,546.5c0.6,0,1.1,0.8,1.1,2.2c0,1.5-0.7,3.1-1.5,3.5L582.4,564v18.7c0,1.3-0.6,2.7-1.4,3.2
							c-0.2,0.1-0.3,0.1-0.5,0.1c-0.6,0-1-0.7-1-1.7V564c0-2.2,1-4.6,2.3-5.3l22-12.1C604,546.6,604.2,546.5,604.3,546.5z"/>
					</g>
					<g>
						<path fill="#FFFFFF" d="M579.4,598.4c0,1.3,0.5,2.1,1.1,2.1c0,0,0,0,0,0C579.8,600.5,579.4,599.7,579.4,598.4L579.4,598.4z"/>
					</g>
					<g>
						<path fill="#FFFFFF" d="M604.3,582.1c0.6,0,1.1,0.8,1.1,2.2c0,1.5-0.7,3.1-1.5,3.5l-22.9,12.6c-0.2,0.1-0.3,0.1-0.5,0.1
							c-0.6,0-1.1-0.8-1.1-2.1c0-1.5,0.7-3.1,1.6-3.6l22.9-12.6C604,582.1,604.2,582.1,604.3,582.1z"/>
					</g>
					<g>
						<path fill="#FFFFFF" d="M580.9,594.8c-0.9,0.5-1.6,2.1-1.6,3.6h0C579.4,596.9,580,595.3,580.9,594.8
							C580.9,594.8,580.9,594.8,580.9,594.8z"/>
					</g>
				</g>
				<g enable-background="new    ">
					<g>
						<path fill="#FFFFFF" d="M601.2,631c-0.2,0-0.3,0-0.5,0c0.1,0,0.3,0,0.4-0.1c0.4-0.2,0.8-0.8,1.1-1.6c0.2,0,0.3,0,0.5,0
							c-0.3,0.8-0.7,1.3-1.2,1.6C601.5,631,601.4,631,601.2,631z"/>
					</g>
					<g>
						<path fill="#FFFFFF" d="M602.8,629.4c-0.2,0-0.3,0-0.5,0c1.7-4.6,2.7-10.1,2.7-15.8c0-7.3-2-12-5-12c0.1,0,0.3,0,0.4,0
							c3.1,0,5.1,4.7,5.1,12C605.5,619.3,604.5,624.8,602.8,629.4z"/>
					</g>
					<g>
						<path fill="#FFFFFF" d="M600,601.6c3,0,5,4.7,5,12c0,5.8-1,11.2-2.7,15.8c-0.3,0.8-0.7,1.3-1.1,1.6c-0.1,0.1-0.3,0.1-0.4,0.1
							c-0.6,0-1.1-0.7-1.1-1.9c0-0.5,0.1-1.2,0.3-1.8c1.5-4.1,2.2-8.6,2.2-12.6c0-4.5-1.1-7.2-2.9-7.2c-0.3,0-0.7,0.1-1.1,0.3
							c-5.6,3.2-2.4,27.8-11.7,33c-0.8,0.4-1.5,0.7-2.2,0.7c-2.8,0-5.1-3.4-5.1-13c0-6.6,1.2-12.5,3.1-17.4c0.3-0.8,0.7-1.3,1.1-1.5
							c0.2-0.1,0.3-0.1,0.5-0.1c0.6,0,1.1,0.6,1.1,1.9c0,0.5-0.1,1.2-0.3,1.8c-1.5,3.9-2.7,8.9-2.7,14c0,6.4,1.5,8.4,3.1,8.4
							c0.4,0,0.8-0.1,1.2-0.3c6.5-3.6,2.9-28,11.8-33C598.7,601.8,599.4,601.6,600,601.6z"/>
					</g>
					<g>
						<path fill="#FFFFFF" d="M600.1,629.2c0,1.2,0.5,1.9,1.1,1.9c-0.2,0-0.3,0-0.5,0c-0.6,0-1.1-0.7-1.1-1.9
							C599.8,629.2,600,629.2,600.1,629.2z"/>
					</g>
					<g>
						<path fill="#FFFFFF" d="M600.5,627.4c-0.2,0.6-0.3,1.3-0.3,1.8c-0.1,0-0.3,0-0.4,0c0-0.5,0.1-1.2,0.3-1.8
							C600.2,627.4,600.3,627.4,600.5,627.4z"/>
					</g>
					<g>
						<path fill="#FFFFFF" d="M599.8,607.5c1.8,0,3,2.8,3,7.2c0,4.1-0.7,8.5-2.2,12.6c-0.1,0-0.3,0-0.4,0c1.5-4.1,2.2-8.6,2.2-12.6
							c0-4.5-1.1-7.2-2.9-7.2C599.5,607.5,599.6,607.5,599.8,607.5z"/>
					</g>
					<g>
						<path fill="#FFFFFF" d="M598.6,607.8c-0.1,0-0.3,0-0.4,0c0.4-0.2,0.7-0.3,1.1-0.3c0.1,0,0.3,0,0.4,0
							C599.4,607.5,599,607.6,598.6,607.8z"/>
					</g>
					<g>
						<path fill="#FFFFFF" d="M600.4,601.6c-0.6,0-1.3,0.2-2,0.6c-0.1,0-0.3,0-0.4,0c0.7-0.4,1.3-0.6,1.9-0.6
							C600.1,601.6,600.3,601.6,600.4,601.6z"/>
					</g>
					<g>
						<path fill="#FFFFFF" d="M586.7,640.8c-0.1,0-0.1,0-0.2,0c9.3-5.2,6.1-29.8,11.7-33c0.1,0,0.3,0,0.4,0
							C592.9,610.9,596.2,635.5,586.7,640.8z"/>
					</g>
					<g>
						<path fill="#FFFFFF" d="M598.5,602.1c-9.1,5-5.5,29.4-12.1,33c-0.1,0-0.1,0-0.2,0c6.5-3.6,2.9-28,11.8-33
							C598.2,602.1,598.3,602.1,598.5,602.1z"/>
					</g>
					<g>
						<path fill="#FFFFFF" d="M586.4,635.2c-0.4,0.2-0.8,0.3-1.2,0.3c0,0-0.1,0-0.1,0c0.4,0,0.8-0.1,1.2-0.3
							C586.3,635.2,586.3,635.2,586.4,635.2z"/>
					</g>
					<g>
						<path fill="#FFFFFF" d="M584.4,641.4c0,0-0.1,0-0.1,0c0.7,0,1.5-0.2,2.2-0.7c0.1,0,0.1,0,0.2,0
							C585.9,641.2,585.1,641.4,584.4,641.4z"/>
					</g>
					<g>
						<path fill="#FFFFFF" d="M584.8,613.1c0,0-0.1,0-0.1,0c0.2-0.6,0.3-1.2,0.3-1.8c0-1.3-0.5-1.9-1.1-1.9c0,0,0.1,0,0.1,0
							c0.6,0,1.1,0.6,1.1,1.9C585.1,611.8,585,612.5,584.8,613.1z"/>
					</g>
					<g>
						<path fill="#FFFFFF" d="M584,609.4c-0.2,0-0.3,0-0.5,0.1c0,0-0.1,0-0.1,0c0.2-0.1,0.3-0.1,0.5-0.1
							C583.9,609.4,583.9,609.4,584,609.4z"/>
					</g>
					<g>
						<path fill="#FFFFFF" d="M583.5,609.6c-0.4,0.2-0.8,0.7-1.2,1.5c0,0,0,0-0.1,0C582.6,610.3,583,609.8,583.5,609.6
							C583.4,609.6,583.4,609.6,583.5,609.6z"/>
					</g>
					<g>
						<path fill="#FFFFFF" d="M585.2,635.5c0,0-0.1,0-0.1,0c-1.6,0-3.1-2-3.1-8.4c0,0,0,0,0.1,0C582,633.5,583.6,635.5,585.2,635.5z
							"/>
					</g>
					<g>
						<path fill="#FFFFFF" d="M582,627.1C582,627.1,581.9,627.1,582,627.1c-0.1-5.1,1.1-10.1,2.7-14c0,0,0.1,0,0.1,0
							C583.2,617,582,622,582,627.1z"/>
					</g>
					<g>
						<path fill="#FFFFFF" d="M579.1,628.5c0,9.5,2.4,13,5.2,13c0,0-0.1,0-0.1,0C581.5,641.4,579.1,638,579.1,628.5L579.1,628.5z"/>
					</g>
					<g>
						<path fill="#FFFFFF" d="M582.3,611.1c-1.9,4.9-3.2,10.8-3.2,17.4h0C579.1,621.8,580.4,615.9,582.3,611.1
							C582.3,611.1,582.3,611.1,582.3,611.1z"/>
					</g>
					<g>
						<path fill="#FFFFFF" d="M600.4,601.6c3.1,0,5.1,4.7,5.1,12c0,5.8-1,11.2-2.7,15.8c-0.3,0.8-0.7,1.3-1.2,1.6
							c-0.1,0.1-0.3,0.1-0.4,0.1c-0.6,0-1.1-0.7-1.1-1.9c0-0.5,0.1-1.2,0.3-1.8c1.5-4.1,2.2-8.6,2.2-12.6c0-4.5-1.2-7.2-3-7.2
							c-0.3,0-0.7,0.1-1.1,0.3c-5.8,3.2-2.5,27.8-12,33c-0.8,0.4-1.5,0.7-2.3,0.7c-2.8,0-5.2-3.4-5.2-13c0-6.6,1.3-12.5,3.2-17.4
							c0.3-0.8,0.7-1.3,1.2-1.5c0.2-0.1,0.3-0.1,0.5-0.1c0.6,0,1.1,0.6,1.1,1.9c0,0.5-0.1,1.2-0.3,1.8c-1.6,3.9-2.8,8.9-2.8,14
							c0,6.4,1.6,8.4,3.2,8.4c0.4,0,0.8-0.1,1.2-0.3c6.6-3.6,3-28,12.1-33C599.2,601.8,599.8,601.6,600.4,601.6z"/>
					</g>
				</g>
				<g enable-background="new    ">
					<g>
						<path fill="#FFFFFF" d="M603.9,679.2c-0.2,0-0.3,0-0.5,0c0.8-0.5,1.5-2,1.5-3.5c0-1.4-0.4-2.2-1.1-2.2c0.2,0,0.4,0,0.5,0
							c0.6,0,1.1,0.8,1.1,2.2C605.4,677.1,604.7,678.7,603.9,679.2z"/>
					</g>
					<g>
						<path fill="#FFFFFF" d="M603.8,641.9c0.6,0,1.1,0.8,1.1,2.2c0,1.5-0.7,3.1-1.5,3.5l-9.5,5.3V679l9.5-5.3
							c0.2-0.1,0.3-0.1,0.4-0.1c0.6,0,1.1,0.8,1.1,2.2c0,1.5-0.7,3.1-1.5,3.5l-22.4,12.6c-0.2,0.1-0.3,0.1-0.5,0.1
							c-0.6,0-1.1-0.8-1.1-2.1c0-1.5,0.7-3.1,1.5-3.6l10.2-5.7v-26.1l-10.2,5.7c-0.2,0.1-0.3,0.1-0.5,0.1c-0.6,0-1.1-0.8-1.1-2.1
							c0-1.5,0.7-3.1,1.5-3.6l22.4-12.6C603.5,641.9,603.6,641.9,603.8,641.9z"/>
					</g>
					<g>
						<path fill="#FFFFFF" d="M604.3,673.5c-0.1,0-0.3,0-0.5,0.1c-0.2,0-0.3,0-0.5,0c0.2-0.1,0.3-0.1,0.4-0.1
							C604,673.5,604.1,673.5,604.3,673.5z"/>
					</g>
					<g>
						<path fill="#FFFFFF" d="M603.9,647.6c-0.2,0-0.3,0-0.5,0c0.8-0.5,1.5-2,1.5-3.5c0-1.4-0.4-2.2-1.1-2.2c0.2,0,0.4,0,0.5,0
							c0.6,0,1.1,0.8,1.1,2.2C605.4,645.5,604.7,647.1,603.9,647.6z"/>
					</g>
					<g>
						<path fill="#FFFFFF" d="M604.3,641.9c-0.1,0-0.3,0-0.4,0.1c-0.2,0-0.3,0-0.5,0c0.2-0.1,0.3-0.1,0.4-0.1
							C604,641.9,604.1,641.9,604.3,641.9z"/>
					</g>
					<g>
						<path fill="#FFFFFF" d="M603.9,673.6l-9.7,5.3c-0.1,0-0.2,0-0.3,0l9.5-5.3C603.5,673.6,603.7,673.6,603.9,673.6z"/>
					</g>
					<g>
						<path fill="#FFFFFF" d="M594.2,652.9c-0.1,0-0.2,0-0.3,0l9.5-5.3c0.2,0,0.3,0,0.5,0C600.9,649.2,597.4,652.1,594.2,652.9z"/>
					</g>
					<g>
						<path fill="#FFFFFF" d="M594.2,679c-0.1,0-0.2,0-0.3,0v-26.1c0.1,0,0.2,0,0.3,0C594.2,660.7,594.2,671.1,594.2,679z"/>
					</g>
					<g>
						<path fill="#FFFFFF" d="M591.3,654.4v26.1c-0.1,0-0.2,0-0.3,0v-26.1C591.2,654.4,591.2,654.4,591.3,654.4z"/>
					</g>
					<g>
						<path fill="#FFFFFF" d="M580.9,691.8C580.9,691.8,580.9,691.8,580.9,691.8l22.4-12.6c0.2,0,0.3,0,0.5,0
							C597,683,588.5,689.8,580.9,691.8z"/>
					</g>
					<g>
						<path fill="#FFFFFF" d="M591.3,680.5l-10.4,5.7c0,0,0,0,0,0l10.2-5.7C591.2,680.5,591.2,680.5,591.3,680.5z"/>
					</g>
					<g>
						<path fill="#FFFFFF" d="M580.9,660.1C580.9,660.1,580.9,660.1,580.9,660.1l10.1-5.7c0.1,0,0.2,0,0.3,0
							C588.2,656.2,584.4,659.3,580.9,660.1z"/>
					</g>
					<g>
						<path fill="#FFFFFF" d="M603.9,642l-22.9,12.6c0,0,0,0,0,0l22.4-12.6C603.5,642,603.7,642,603.9,642z"/>
					</g>
					<g>
						<path fill="#FFFFFF" d="M580.5,660.3C580.4,660.3,580.4,660.3,580.5,660.3c0.1,0,0.3,0,0.4-0.1c0,0,0,0,0,0
							C580.8,660.2,580.6,660.3,580.5,660.3z"/>
					</g>
					<g>
						<path fill="#FFFFFF" d="M580.5,691.9C580.4,691.9,580.4,691.9,580.5,691.9c0.1,0,0.3,0,0.4-0.1c0,0,0,0,0,0
							C580.8,691.9,580.6,691.9,580.5,691.9z"/>
					</g>
					<g>
						<path fill="#FFFFFF" d="M579.4,689.8c0,1.3,0.5,2.1,1.1,2.1c0,0,0,0,0,0C579.8,691.9,579.4,691.1,579.4,689.8L579.4,689.8z"/>
					</g>
					<g>
						<path fill="#FFFFFF" d="M580.9,686.2c-0.9,0.5-1.6,2.1-1.6,3.6h0C579.4,688.3,580,686.7,580.9,686.2
							C580.9,686.2,580.9,686.2,580.9,686.2z"/>
					</g>
					<g>
						<path fill="#FFFFFF" d="M579.4,658.2c0,1.3,0.5,2.1,1.1,2.1c0,0,0,0,0,0C579.8,660.3,579.4,659.5,579.4,658.2L579.4,658.2z"/>
					</g>
					<g>
						<path fill="#FFFFFF" d="M580.9,654.6c-0.9,0.5-1.6,2.1-1.6,3.6h0C579.4,656.7,580,655.1,580.9,654.6
							C580.9,654.6,580.9,654.6,580.9,654.6z"/>
					</g>
					<g>
						<path fill="#FFFFFF" d="M604.3,641.9c0.6,0,1.1,0.8,1.1,2.2c0,1.5-0.7,3.1-1.5,3.5l-9.7,5.3V679l9.7-5.3
							c0.2-0.1,0.3-0.1,0.5-0.1c0.6,0,1.1,0.8,1.1,2.2c0,1.5-0.7,3.1-1.5,3.5l-22.9,12.6c-0.2,0.1-0.3,0.1-0.5,0.1
							c-0.6,0-1.1-0.8-1.1-2.1c0-1.5,0.7-3.1,1.6-3.6l10.4-5.7v-26.1l-10.4,5.7c-0.2,0.1-0.3,0.1-0.5,0.1c-0.6,0-1.1-0.8-1.1-2.1
							c0-1.5,0.7-3.1,1.6-3.6l22.9-12.6C604,641.9,604.2,641.9,604.3,641.9z"/>
					</g>
				</g>
			</g>
			<g>
				<g enable-background="new    ">
					<g>
						<path fill="#FFFFFF" d="M772.5,341c-0.2,0-0.3,0-0.5,0c1-1.3,1.6-3.5,1.6-5.3c0-2.1-0.8-3.4-1.8-3.4c0.2,0,0.3,0,0.5,0
							c1,0,1.8,1.3,1.8,3.4C774.1,337.5,773.5,339.7,772.5,341z"/>
					</g>
					<g>
						<path fill="#FFFFFF" d="M771.6,376.2c-0.2,0-0.3,0-0.5,0c1.3-0.8,2.5-3.5,2.5-6c0-1.9-0.6-3.3-1.6-3.5c0.2,0,0.3,0,0.5,0
							c1,0.2,1.6,1.7,1.6,3.5C774.1,372.7,772.9,375.4,771.6,376.2z"/>
					</g>
					<g>
						<path fill="#FFFFFF" d="M771.8,332.3c1,0,1.8,1.3,1.8,3.4c0,1.8-0.6,4-1.6,5.3l-17.5,22.6l17.5,3.1c1,0.2,1.6,1.7,1.6,3.5
							c0,2.5-1.2,5.3-2.5,6l-21.4,12c-0.2,0.1-0.3,0.1-0.5,0.1c-0.6,0-1.1-0.8-1.1-2.1c0-1.5,0.7-3.1,1.5-3.6l19.3-10.8l-20.3-3.6
							c-0.3,0-0.5-0.5-0.5-1.1c0-0.5,0.2-1.2,0.5-1.5l20.3-26.3L749.7,350c-0.2,0.1-0.3,0.1-0.5,0.1c-0.6,0-1.1-0.8-1.1-2.1
							c0-1.5,0.7-3.1,1.5-3.6l21.4-12C771.3,332.4,771.5,332.3,771.8,332.3z"/>
					</g>
					<g>
						<path fill="#FFFFFF" d="M772.3,332.3c-0.2,0-0.5,0.1-0.7,0.2c-0.2,0-0.3,0-0.5,0c0.2-0.1,0.5-0.2,0.7-0.2
							C771.9,332.3,772.1,332.3,772.3,332.3z"/>
					</g>
					<g>
						<path fill="#FFFFFF" d="M754.7,363.6c0,0-0.1,0-0.1,0L772,341c0.2,0,0.3,0,0.5,0C767.2,347.8,760,356.8,754.7,363.6z"/>
					</g>
					<g>
						<path fill="#FFFFFF" d="M772.5,366.6c-0.2,0-0.3,0-0.5,0l-17.5-3.1c0,0,0.1,0,0.1,0C760,364.5,767.2,365.7,772.5,366.6z"/>
					</g>
					<g>
						<path fill="#FFFFFF" d="M749.7,388.2C749.7,388.2,749.7,388.2,749.7,388.2l21.4-12c0.2,0,0.3,0,0.5,0
							C765,379.8,756.9,386.3,749.7,388.2z"/>
					</g>
					<g>
						<path fill="#FFFFFF" d="M769.4,371.8l-19.7,10.8c0,0,0,0,0,0l19.3-10.8C769.1,371.8,769.3,371.8,769.4,371.8z"/>
					</g>
					<g>
						<path fill="#FFFFFF" d="M769.4,339.2l-20.8,26.3c0,0,0,0,0,0l20.3-26.3C769.1,339.2,769.3,339.2,769.4,339.2z"/>
					</g>
					<g>
						<path fill="#FFFFFF" d="M749.7,350C749.7,350,749.7,350,749.7,350l19.3-10.8c0.2,0,0.3,0,0.4,0
							C763.5,342.5,756.2,348.4,749.7,350z"/>
					</g>
					<g>
						<path fill="#FFFFFF" d="M771.6,332.5l-21.8,12c0,0,0,0,0,0l21.4-12C771.2,332.5,771.4,332.5,771.6,332.5z"/>
					</g>
					<g>
						<path fill="#FFFFFF" d="M749.2,388.3C749.2,388.3,749.2,388.3,749.2,388.3c0.1,0,0.3,0,0.4-0.1c0,0,0,0,0,0
							C749.5,388.2,749.4,388.3,749.2,388.3z"/>
					</g>
					<g>
						<path fill="#FFFFFF" d="M749.2,350.2C749.2,350.2,749.2,350.2,749.2,350.2c0.1,0,0.3,0,0.4-0.1c0,0,0,0,0,0
							C749.5,350.1,749.4,350.2,749.2,350.2z"/>
					</g>
					<g>
						<path fill="#FFFFFF" d="M748.6,368.2l20.8,3.6c-0.1,0-0.3,0-0.4,0L748.6,368.2C748.6,368.2,748.6,368.2,748.6,368.2z"/>
					</g>
					<g>
						<path fill="#FFFFFF" d="M748.1,386.2c0,1.3,0.4,2.1,1.1,2.1c0,0,0,0,0,0C748.6,388.3,748.1,387.5,748.1,386.2L748.1,386.2z"/>
					</g>
					<g>
						<path fill="#FFFFFF" d="M749.7,382.6c-0.9,0.5-1.6,2.1-1.6,3.6h0C748.1,384.7,748.8,383.1,749.7,382.6
							C749.7,382.6,749.7,382.6,749.7,382.6z"/>
					</g>
					<g>
						<path fill="#FFFFFF" d="M748.1,367.1c0,0.7,0.2,1.1,0.5,1.1c0,0,0,0,0,0C748.3,368.2,748.1,367.8,748.1,367.1L748.1,367.1z"/>
					</g>
					<g>
						<path fill="#FFFFFF" d="M748.6,365.5c-0.3,0.4-0.5,1-0.5,1.5h0C748.1,366.6,748.3,365.9,748.6,365.5
							C748.6,365.5,748.6,365.5,748.6,365.5z"/>
					</g>
					<g>
						<path fill="#FFFFFF" d="M748.1,348.1c0,1.3,0.4,2.1,1.1,2.1c0,0,0,0,0,0C748.6,350.2,748.1,349.4,748.1,348.1L748.1,348.1z"/>
					</g>
					<g>
						<path fill="#FFFFFF" d="M749.7,344.5c-0.9,0.5-1.6,2.1-1.6,3.6h0C748.1,346.6,748.8,345,749.7,344.5
							C749.7,344.5,749.7,344.5,749.7,344.5z"/>
					</g>
					<g>
						<path fill="#FFFFFF" d="M772.3,332.3c1,0,1.8,1.3,1.8,3.4c0,1.8-0.6,4-1.6,5.3l-17.8,22.6l17.8,3.1c1,0.2,1.6,1.7,1.6,3.5
							c0,2.5-1.2,5.3-2.6,6l-21.8,12c-0.2,0.1-0.3,0.1-0.5,0.1c-0.6,0-1.1-0.8-1.1-2.1c0-1.5,0.7-3.1,1.6-3.6l19.7-10.8l-20.8-3.6
							c-0.3,0-0.5-0.5-0.5-1.1c0-0.5,0.2-1.2,0.5-1.5l20.8-26.3L749.7,350c-0.2,0.1-0.3,0.1-0.5,0.1c-0.6,0-1.1-0.8-1.1-2.1
							c0-1.5,0.7-3.1,1.6-3.6l21.8-12C771.8,332.4,772,332.3,772.3,332.3z"/>
					</g>
				</g>
				<g enable-background="new    ">
					<g>
						<path fill="#FFFFFF" d="M773.9,455.3c-0.2,0-0.4,0-0.5,0v-29.8c0.2,0,0.4,0,0.5,0C773.9,434.4,773.9,446.4,773.9,455.3z"/>
					</g>
					<g>
						<path fill="#FFFFFF" d="M773.9,425.5c-0.2,0-0.4,0-0.5,0c0-1.1-0.4-1.8-0.9-1.8c0.2,0,0.3,0,0.5,0
							C773.5,423.7,773.9,424.4,773.9,425.5z"/>
					</g>
					<g>
						<path fill="#FFFFFF" d="M772.4,423.7c0.5,0,0.9,0.7,0.9,1.8v29.8c0,1.3-0.6,2.7-1.4,3.2c-0.1,0.1-0.3,0.1-0.4,0.1
							c-0.5,0-0.9-0.7-0.9-1.8v-12.2l-20.9,11.7c-0.2,0.1-0.3,0.1-0.5,0.1c-0.6,0-1.1-0.8-1.1-2.1c0-1.5,0.7-3.1,1.5-3.6l20.9-11.7
							v-12.1c0-1.3,0.6-2.7,1.4-3.2C772.2,423.8,772.3,423.7,772.4,423.7z"/>
					</g>
					<g>
						<path fill="#FFFFFF" d="M773,423.7c-0.1,0-0.3,0-0.4,0.1c-0.2,0-0.3,0-0.5,0c0.1-0.1,0.3-0.1,0.4-0.1
							C772.6,423.7,772.8,423.7,773,423.7z"/>
					</g>
					<g>
						<path fill="#FFFFFF" d="M772.4,409c-0.2,0-0.3,0-0.5,0c1-1.3,1.7-3.4,1.7-5.4c0-2.1-0.7-3.4-1.7-3.6c0.2,0,0.3,0,0.5,0
							c1,0.2,1.7,1.5,1.7,3.6C774.2,405.6,773.5,407.7,772.4,409z"/>
					</g>
					<g>
						<path fill="#FFFFFF" d="M772,458.6c-0.2,0-0.3,0-0.5,0c0.1,0,0.3,0,0.4-0.1c0.8-0.5,1.4-1.9,1.4-3.2c0.2,0,0.4,0,0.5,0
							c0,1.3-0.6,2.7-1.5,3.2C772.3,458.6,772.2,458.6,772,458.6z"/>
					</g>
					<g>
						<path fill="#FFFFFF" d="M771.1,456.9c0,1.1,0.4,1.8,1,1.8c-0.2,0-0.3,0-0.5,0c-0.5,0-0.9-0.7-0.9-1.8
							C770.8,456.9,770.9,456.9,771.1,456.9z"/>
					</g>
					<g>
						<path fill="#FFFFFF" d="M771.1,444.7v12.2c-0.2,0-0.3,0-0.5,0v-12.2C770.8,444.7,770.9,444.7,771.1,444.7z"/>
					</g>
					<g>
						<path fill="#FFFFFF" d="M771.1,427.1v12.1c-0.2,0-0.3,0-0.5,0v-12.1C770.8,427.1,770.9,427.1,771.1,427.1z"/>
					</g>
					<g>
						<path fill="#FFFFFF" d="M772.5,423.9c-0.8,0.5-1.5,1.9-1.5,3.2c-0.2,0-0.3,0-0.5,0c0-1.3,0.6-2.7,1.4-3.2
							C772.2,423.9,772.4,423.9,772.5,423.9z"/>
					</g>
					<g>
						<path fill="#FFFFFF" d="M771.9,400c1,0.2,1.7,1.5,1.7,3.6c0,1.9-0.7,4.1-1.7,5.4l-21.5,27.6c-0.2,0.2-0.4,0.4-0.6,0.5
							c-0.1,0.1-0.3,0.1-0.4,0.1c-0.6,0-1.2-0.7-1.2-2.2c0-1.1,0.4-2.4,1-3.2l4.8-6v-22.2l-4.8-0.7c-0.6-0.1-1-1-1-2.1
							c0-1.7,0.8-3.4,1.6-3.9c0.2-0.1,0.3-0.1,0.5-0.1c0,0,0.1,0,0.1,0L771.9,400z M756.7,422.5l13.5-17l-13.5-1.9V422.5"/>
					</g>
					<g>
						<path fill="#FFFFFF" d="M770.6,405.6l-13.8,17c-0.1,0-0.1,0-0.2,0l13.5-17C770.3,405.6,770.5,405.6,770.6,405.6z"/>
					</g>
					<g>
						<path fill="#FFFFFF" d="M756.9,403.6l13.8,1.9c-0.2,0-0.3,0-0.5,0l-13.5-1.9C756.7,403.6,756.8,403.6,756.9,403.6z"/>
					</g>
					<g>
						<path fill="#FFFFFF" d="M756.9,422.5c-0.1,0-0.1,0-0.2,0v-18.9c0.1,0,0.1,0,0.2,0C756.9,409.3,756.9,416.9,756.9,422.5z"/>
					</g>
					<g>
						<path fill="#FFFFFF" d="M754,403.6v22.2c0,0-0.1,0-0.1,0v-22.2C753.9,403.6,754,403.6,754,403.6z"/>
					</g>
					<g>
						<path fill="#FFFFFF" d="M750.4,436.6C750.4,436.6,750.4,436.6,750.4,436.6l21.5-27.6c0.2,0,0.3,0,0.5,0
							C765.8,417.3,757,428.3,750.4,436.6z"/>
					</g>
					<g>
						<path fill="#FFFFFF" d="M772.4,400c-0.2,0-0.3,0-0.5,0l-21.5-3.3c0,0,0,0,0.1,0C757,397.7,765.8,399,772.4,400z"/>
					</g>
					<g>
						<path fill="#FFFFFF" d="M750.4,396.7C750.4,396.7,750.4,396.7,750.4,396.7c-0.1,0-0.1,0-0.1,0
							C750.3,396.7,750.3,396.7,750.4,396.7C750.4,396.7,750.4,396.7,750.4,396.7z"/>
					</g>
					<g>
						<path fill="#FFFFFF" d="M749.8,437.1C749.8,437.1,749.8,437.1,749.8,437.1c0.1-0.1,0.4-0.3,0.6-0.5c0,0,0,0,0.1,0
							C750.2,436.8,750,437,749.8,437.1z"/>
					</g>
					<g>
						<path fill="#FFFFFF" d="M750.3,396.7c-0.2,0-0.4,0.1-0.5,0.1c0,0,0,0,0,0C749.9,396.8,750.1,396.7,750.3,396.7
							C750.3,396.7,750.3,396.7,750.3,396.7z"/>
					</g>
					<g>
						<path fill="#FFFFFF" d="M749.7,456.5C749.7,456.5,749.7,456.5,749.7,456.5l20.9-11.7c0.2,0,0.3,0,0.5,0
							C764.7,448.2,756.8,454.6,749.7,456.5z"/>
					</g>
					<g>
						<path fill="#FFFFFF" d="M771.1,439.2l-21.4,11.7c0,0,0,0,0,0l20.9-11.7C770.8,439.2,770.9,439.2,771.1,439.2z"/>
					</g>
					<g>
						<path fill="#FFFFFF" d="M749.4,437.2C749.4,437.2,749.4,437.2,749.4,437.2c0.1,0,0.3,0,0.4-0.1c0,0,0,0,0,0
							C749.7,437.2,749.5,437.2,749.4,437.2z"/>
					</g>
					<g>
						<path fill="#FFFFFF" d="M749.2,456.6C749.2,456.6,749.2,456.6,749.2,456.6c0.1,0,0.3,0,0.4-0.1c0,0,0,0,0,0
							C749.5,456.5,749.4,456.6,749.2,456.6z"/>
					</g>
					<g>
						<path fill="#FFFFFF" d="M754,425.8l-4.9,6c0,0,0,0,0,0l4.8-6C753.9,425.8,754,425.8,754,425.8z"/>
					</g>
					<g>
						<path fill="#FFFFFF" d="M749.2,402.9l4.9,0.7c0,0-0.1,0-0.1,0L749.2,402.9C749.1,402.9,749.2,402.9,749.2,402.9z"/>
					</g>
					<g>
						<path fill="#FFFFFF" d="M748.1,454.5c0,1.3,0.4,2.1,1.1,2.1c0,0,0,0,0,0C748.6,456.6,748.1,455.8,748.1,454.5L748.1,454.5z"/>
					</g>
					<g>
						<path fill="#FFFFFF" d="M749.7,450.9c-0.9,0.5-1.6,2.1-1.6,3.6h0C748.1,453,748.8,451.4,749.7,450.9
							C749.7,450.9,749.7,450.9,749.7,450.9z"/>
					</g>
					<g>
						<path fill="#FFFFFF" d="M773,423.7c0.6,0,1,0.7,1,1.8v29.8c0,1.3-0.6,2.7-1.5,3.2c-0.1,0.1-0.3,0.1-0.4,0.1
							c-0.6,0-1-0.7-1-1.8v-12.2l-21.4,11.7c-0.2,0.1-0.3,0.1-0.5,0.1c-0.6,0-1.1-0.8-1.1-2.1c0-1.5,0.7-3.1,1.6-3.6l21.4-11.7
							v-12.1c0-1.3,0.6-2.7,1.5-3.2C772.7,423.8,772.8,423.7,773,423.7z"/>
					</g>
					<g>
						<path fill="#FFFFFF" d="M748.1,435c0,1.5,0.6,2.2,1.2,2.2c0,0,0,0,0,0C748.7,437.2,748.1,436.5,748.1,435L748.1,435z"/>
					</g>
					<g>
						<path fill="#FFFFFF" d="M749.2,431.8c-0.7,0.8-1,2.1-1,3.2h0C748.1,433.9,748.5,432.6,749.2,431.8
							C749.1,431.8,749.2,431.8,749.2,431.8z"/>
					</g>
					<g>
						<path fill="#FFFFFF" d="M748.1,400.8c0,1.1,0.4,2,1,2.1c0,0,0,0,0,0C748.5,402.8,748.1,401.9,748.1,400.8L748.1,400.8z"/>
					</g>
					<g>
						<path fill="#FFFFFF" d="M749.8,396.9c-0.9,0.5-1.7,2.2-1.7,3.9h0C748.1,399.1,748.9,397.4,749.8,396.9
							C749.8,396.9,749.8,396.9,749.8,396.9z"/>
					</g>
					<g>
						<path fill="#FFFFFF" d="M772.4,400c1,0.2,1.7,1.5,1.7,3.6c0,1.9-0.7,4.1-1.7,5.4l-22,27.6c-0.2,0.2-0.4,0.4-0.6,0.5
							c-0.1,0.1-0.3,0.1-0.4,0.1c-0.6,0-1.2-0.7-1.2-2.2c0-1.1,0.4-2.4,1-3.2l4.9-6v-22.2l-4.9-0.7c-0.7-0.1-1-1-1-2.1
							c0-1.7,0.8-3.4,1.7-3.9c0.2-0.1,0.3-0.1,0.5-0.1c0,0,0.1,0,0.1,0L772.4,400z M756.9,422.5l13.8-17l-13.8-1.9V422.5"/>
					</g>
				</g>
				<g enable-background="new    ">
					<g>
						<path fill="#FFFFFF" d="M772.6,504.2c-0.2,0-0.3,0-0.5,0c0.8-0.5,1.5-2,1.5-3.5c0-1.4-0.4-2.2-1.1-2.2c0.2,0,0.4,0,0.5,0
							c0.6,0,1.1,0.8,1.1,2.2C774.2,502.2,773.5,503.8,772.6,504.2z"/>
					</g>
					<g>
						<path fill="#FFFFFF" d="M772.5,466.9c0.6,0,1.1,0.8,1.1,2.2c0,1.5-0.7,3.1-1.5,3.5l-9.5,5.3V504l9.5-5.3
							c0.2-0.1,0.3-0.1,0.4-0.1c0.6,0,1.1,0.8,1.1,2.2c0,1.5-0.7,3.1-1.5,3.5l-22.4,12.6c-0.2,0.1-0.3,0.1-0.5,0.1
							c-0.6,0-1.1-0.8-1.1-2.1c0-1.5,0.7-3.1,1.5-3.6l10.2-5.7v-26.1l-10.2,5.7c-0.2,0.1-0.3,0.1-0.5,0.1c-0.6,0-1.1-0.8-1.1-2.1
							c0-1.5,0.7-3.1,1.5-3.6l22.4-12.6C772.3,467,772.4,466.9,772.5,466.9z"/>
					</g>
					<g>
						<path fill="#FFFFFF" d="M773.1,498.5c-0.1,0-0.3,0-0.5,0.1c-0.2,0-0.3,0-0.5,0c0.2-0.1,0.3-0.1,0.4-0.1
							C772.7,498.5,772.9,498.5,773.1,498.5z"/>
					</g>
					<g>
						<path fill="#FFFFFF" d="M772.6,472.6c-0.2,0-0.3,0-0.5,0c0.8-0.5,1.5-2,1.5-3.5c0-1.4-0.4-2.2-1.1-2.2c0.2,0,0.4,0,0.5,0
							c0.6,0,1.1,0.8,1.1,2.2C774.2,470.6,773.5,472.1,772.6,472.6z"/>
					</g>
					<g>
						<path fill="#FFFFFF" d="M773.1,466.9c-0.1,0-0.3,0-0.5,0.1c-0.2,0-0.3,0-0.5,0c0.2-0.1,0.3-0.1,0.4-0.1
							C772.7,466.9,772.9,466.9,773.1,466.9z"/>
					</g>
					<g>
						<path fill="#FFFFFF" d="M772.6,498.7l-9.7,5.3c-0.1,0-0.2,0-0.3,0l9.5-5.3C772.3,498.7,772.4,498.7,772.6,498.7z"/>
					</g>
					<g>
						<path fill="#FFFFFF" d="M762.9,477.9c-0.1,0-0.2,0-0.3,0l9.5-5.3c0.2,0,0.3,0,0.5,0C769.7,474.2,766.1,477.1,762.9,477.9z"/>
					</g>
					<g>
						<path fill="#FFFFFF" d="M762.9,504c-0.1,0-0.2,0-0.3,0v-26.1c0.1,0,0.2,0,0.3,0C762.9,485.7,762.9,496.2,762.9,504z"/>
					</g>
					<g>
						<path fill="#FFFFFF" d="M760.1,479.5v26.1c-0.1,0-0.2,0-0.3,0v-26.1C759.9,479.5,760,479.5,760.1,479.5z"/>
					</g>
					<g>
						<path fill="#FFFFFF" d="M749.7,516.8C749.7,516.8,749.7,516.8,749.7,516.8l22.4-12.6c0.2,0,0.3,0,0.5,0
							C765.7,508,757.3,514.9,749.7,516.8z"/>
					</g>
					<g>
						<path fill="#FFFFFF" d="M760.1,505.5l-10.4,5.7c0,0,0,0,0,0l10.2-5.7C759.9,505.5,760,505.5,760.1,505.5z"/>
					</g>
					<g>
						<path fill="#FFFFFF" d="M749.7,485.2C749.7,485.2,749.7,485.2,749.7,485.2l10.1-5.7c0.1,0,0.2,0,0.3,0
							C757,481.2,753.1,484.3,749.7,485.2z"/>
					</g>
					<g>
						<path fill="#FFFFFF" d="M772.6,467l-22.9,12.6c0,0,0,0,0,0l22.4-12.6C772.3,467,772.4,467,772.6,467z"/>
					</g>
					<g>
						<path fill="#FFFFFF" d="M749.2,516.9C749.2,516.9,749.2,516.9,749.2,516.9c0.1,0,0.3,0,0.4-0.1c0,0,0,0,0,0
							C749.5,516.9,749.4,516.9,749.2,516.9z"/>
					</g>
					<g>
						<path fill="#FFFFFF" d="M749.2,485.3C749.2,485.3,749.2,485.3,749.2,485.3c0.1,0,0.3,0,0.4-0.1c0,0,0,0,0,0
							C749.5,485.3,749.4,485.3,749.2,485.3z"/>
					</g>
					<g>
						<path fill="#FFFFFF" d="M748.1,514.9c0,1.3,0.4,2.1,1.1,2.1c0,0,0,0,0,0C748.6,516.9,748.1,516.2,748.1,514.9L748.1,514.9z"/>
					</g>
					<g>
						<path fill="#FFFFFF" d="M749.7,511.3c-0.9,0.5-1.6,2.1-1.6,3.6h0C748.1,513.3,748.8,511.7,749.7,511.3
							C749.7,511.3,749.7,511.3,749.7,511.3z"/>
					</g>
					<g>
						<path fill="#FFFFFF" d="M748.1,483.2c0,1.3,0.4,2.1,1.1,2.1c0,0,0,0,0,0C748.6,485.3,748.1,484.5,748.1,483.2L748.1,483.2z"/>
					</g>
					<g>
						<path fill="#FFFFFF" d="M749.7,479.6c-0.9,0.5-1.6,2.1-1.6,3.6h0C748.1,481.7,748.8,480.1,749.7,479.6
							C749.7,479.6,749.7,479.6,749.7,479.6z"/>
					</g>
					<g>
						<path fill="#FFFFFF" d="M773.1,466.9c0.6,0,1.1,0.8,1.1,2.2c0,1.5-0.7,3.1-1.5,3.5l-9.7,5.3V504l9.7-5.3
							c0.2-0.1,0.3-0.1,0.5-0.1c0.6,0,1.1,0.8,1.1,2.2c0,1.5-0.7,3.1-1.5,3.5l-22.9,12.6c-0.2,0.1-0.3,0.1-0.5,0.1
							c-0.6,0-1.1-0.8-1.1-2.1c0-1.5,0.7-3.1,1.6-3.6l10.4-5.7v-26.1l-10.4,5.7c-0.2,0.1-0.3,0.1-0.5,0.1c-0.6,0-1.1-0.8-1.1-2.1
							c0-1.5,0.7-3.1,1.6-3.6l22.9-12.6C772.8,467,772.9,466.9,773.1,466.9z"/>
					</g>
				</g>
				<g enable-background="new    ">
					<g>
						<path fill="#FFFFFF" d="M773.9,543.8c-0.2,0-0.4,0-0.5,0v-23.2c0.2,0,0.4,0,0.5,0C773.9,527.6,773.9,536.9,773.9,543.8z"/>
					</g>
					<g>
						<path fill="#FFFFFF" d="M773.9,520.6c-0.2,0-0.4,0-0.5,0c0-1.8-0.7-2.9-1.6-2.9c0.2,0,0.3,0,0.5,0
							C773.2,517.7,773.9,518.8,773.9,520.6z"/>
					</g>
					<g>
						<path fill="#FFFFFF" d="M772.5,566.3c-0.2,0-0.3,0-0.5,0c1-1.3,1.6-3.5,1.6-5.3c0-2.1-0.8-3.4-1.8-3.4c0.2,0,0.3,0,0.5,0
							c1,0,1.8,1.3,1.8,3.4C774.1,562.8,773.5,565,772.5,566.3z"/>
					</g>
					<g>
						<path fill="#FFFFFF" d="M772,547.1c-0.2,0-0.3,0-0.5,0c0.1,0,0.3,0,0.4-0.1c0.8-0.5,1.4-1.9,1.4-3.2c0.2,0,0.4,0,0.5,0
							c0,1.3-0.6,2.7-1.5,3.2C772.3,547.1,772.2,547.1,772,547.1z"/>
					</g>
					<g>
						<path fill="#FFFFFF" d="M771.8,517.7c0.9,0,1.6,1.1,1.6,2.9v23.2c0,1.3-0.6,2.7-1.4,3.2c-0.1,0.1-0.3,0.1-0.4,0.1
							c-0.5,0-0.9-0.7-0.9-1.8v-21.7l-8.1,4.5v21.2c0,1.3-0.6,2.7-1.4,3.2c-0.1,0.1-0.3,0.1-0.4,0.1c-0.5,0-0.9-0.7-0.9-1.8v-21.2
							l-8.6,4.8v21.7c0,1.3-0.6,2.7-1.3,3.2c-0.2,0.1-0.3,0.1-0.5,0.1c-0.6,0-1-0.7-1-1.7v-23.2c0-2.2,1-4.6,2.3-5.3l20.5-11.5
							C771.4,517.7,771.6,517.7,771.8,517.7z"/>
					</g>
					<g>
						<path fill="#FFFFFF" d="M772.3,517.7c-0.2,0-0.4,0.1-0.7,0.2c-0.2,0-0.3,0-0.5,0c0.2-0.1,0.5-0.2,0.7-0.2
							C772,517.7,772.1,517.7,772.3,517.7z"/>
					</g>
					<g>
						<path fill="#FFFFFF" d="M771.6,601.5c-0.2,0-0.3,0-0.5,0c1.3-0.8,2.5-3.5,2.5-6c0-1.9-0.6-3.3-1.6-3.5c0.2,0,0.3,0,0.5,0
							c1,0.2,1.6,1.7,1.6,3.5C774.1,598,772.9,600.7,771.6,601.5z"/>
					</g>
					<g>
						<path fill="#FFFFFF" d="M771.8,557.6c1,0,1.8,1.3,1.8,3.4c0,1.8-0.6,4-1.6,5.3l-17.5,22.6l17.5,3c1,0.2,1.6,1.7,1.6,3.5
							c0,2.5-1.2,5.3-2.5,6l-21.4,12c-0.2,0.1-0.3,0.1-0.5,0.1c-0.6,0-1.1-0.8-1.1-2.1c0-1.5,0.7-3.1,1.5-3.6l19.3-10.8l-20.3-3.6
							c-0.3,0-0.5-0.5-0.5-1.1c0-0.5,0.2-1.2,0.5-1.5l20.3-26.3l-19.3,10.8c-0.2,0.1-0.3,0.1-0.5,0.1c-0.6,0-1.1-0.8-1.1-2.1
							c0-1.5,0.7-3.1,1.5-3.6l21.4-12C771.3,557.7,771.5,557.6,771.8,557.6z"/>
					</g>
					<g>
						<path fill="#FFFFFF" d="M772.3,557.6c-0.2,0-0.5,0.1-0.7,0.2c-0.2,0-0.3,0-0.5,0c0.2-0.1,0.5-0.2,0.7-0.2
							C771.9,557.6,772.1,557.6,772.3,557.6z"/>
					</g>
					<g>
						<path fill="#FFFFFF" d="M771.1,545.4c0,1.1,0.4,1.8,1,1.8c-0.2,0-0.3,0-0.5,0c-0.5,0-0.9-0.7-0.9-1.8
							C770.8,545.4,770.9,545.4,771.1,545.4z"/>
					</g>
					<g>
						<path fill="#FFFFFF" d="M771.1,523.7v21.7c-0.2,0-0.3,0-0.5,0v-21.7C770.8,523.7,770.9,523.7,771.1,523.7z"/>
					</g>
					<g>
						<path fill="#FFFFFF" d="M762.8,528.2c-0.1,0-0.2,0-0.3,0l8.1-4.5c0.2,0,0.3,0,0.5,0C768.6,525.1,765.6,527.5,762.8,528.2z"/>
					</g>
					<g>
						<path fill="#FFFFFF" d="M762.8,549.4c-0.1,0-0.2,0-0.3,0v-21.2c0.1,0,0.2,0,0.3,0C762.8,534.6,762.8,543.1,762.8,549.4z"/>
					</g>
					<g>
						<path fill="#FFFFFF" d="M761,552.8c-0.1,0-0.2,0-0.3,0c0.1,0,0.3,0,0.4-0.1c0.8-0.5,1.4-1.9,1.4-3.2c0.1,0,0.2,0,0.3,0
							c0,1.3-0.6,2.7-1.5,3.2C761.2,552.7,761.1,552.8,761,552.8z"/>
					</g>
					<g>
						<path fill="#FFFFFF" d="M760,551c0,1.1,0.4,1.8,1,1.8c-0.1,0-0.2,0-0.3,0c-0.5,0-0.9-0.7-0.9-1.8C759.8,551,759.9,551,760,551
							z"/>
					</g>
					<g>
						<path fill="#FFFFFF" d="M760,529.8V551c-0.1,0-0.2,0-0.3,0v-21.2C759.8,529.8,759.9,529.8,760,529.8z"/>
					</g>
					<g>
						<path fill="#FFFFFF" d="M754.7,588.9c0,0-0.1,0-0.1,0l17.5-22.6c0.2,0,0.3,0,0.5,0C767.2,573.1,760,582.1,754.7,588.9z"/>
					</g>
					<g>
						<path fill="#FFFFFF" d="M772.5,591.9c-0.2,0-0.3,0-0.5,0l-17.5-3c0,0,0.1,0,0.1,0C760,589.8,767.2,591,772.5,591.9z"/>
					</g>
					<g>
						<path fill="#FFFFFF" d="M751.2,534.6C751.2,534.6,751.1,534.6,751.2,534.6l8.6-4.8c0.1,0,0.2,0,0.3,0
							C757.4,531.3,754.1,533.9,751.2,534.6z"/>
					</g>
					<g>
						<path fill="#FFFFFF" d="M751.2,556.3C751.2,556.3,751.1,556.3,751.2,556.3l-0.1-21.7c0,0,0,0,0.1,0
							C751.2,541.1,751.2,549.8,751.2,556.3z"/>
					</g>
					<g>
						<path fill="#FFFFFF" d="M771.6,517.9l-21,11.5c0,0,0,0-0.1,0l20.5-11.5C771.3,517.9,771.5,517.9,771.6,517.9z"/>
					</g>
					<g>
						<path fill="#FFFFFF" d="M749.8,559.5C749.8,559.5,749.8,559.5,749.8,559.5c0.7-0.4,1.3-1.8,1.3-3.2c0,0,0,0,0.1,0
							C751.2,557.6,750.6,559.1,749.8,559.5z"/>
					</g>
					<g>
						<path fill="#FFFFFF" d="M749.7,613.4C749.7,613.4,749.7,613.4,749.7,613.4l21.4-12c0.2,0,0.3,0,0.5,0
							C765,605.1,756.9,611.6,749.7,613.4z"/>
					</g>
					<g>
						<path fill="#FFFFFF" d="M769.4,597.1l-19.7,10.8c0,0,0,0,0,0l19.3-10.8C769.1,597.1,769.3,597.1,769.4,597.1z"/>
					</g>
					<g>
						<path fill="#FFFFFF" d="M769.4,564.5l-20.8,26.3c0,0,0,0,0,0l20.3-26.3C769.1,564.5,769.3,564.5,769.4,564.5z"/>
					</g>
					<g>
						<path fill="#FFFFFF" d="M749.7,575.3C749.7,575.3,749.7,575.3,749.7,575.3l19.3-10.8c0.2,0,0.3,0,0.4,0
							C763.5,567.8,756.2,573.7,749.7,575.3z"/>
					</g>
					<g>
						<path fill="#FFFFFF" d="M771.6,557.8l-21.8,12c0,0,0,0,0,0l21.4-12C771.2,557.8,771.4,557.8,771.6,557.8z"/>
					</g>
					<g>
						<path fill="#FFFFFF" d="M749.3,559.6C749.3,559.6,749.3,559.6,749.3,559.6c0.1,0,0.3,0,0.4-0.1c0,0,0,0,0,0
							C749.6,559.6,749.5,559.6,749.3,559.6z"/>
					</g>
					<g>
						<path fill="#FFFFFF" d="M749.2,613.6C749.2,613.6,749.2,613.6,749.2,613.6c0.1,0,0.3,0,0.4-0.1c0,0,0,0,0,0
							C749.5,613.5,749.4,613.6,749.2,613.6z"/>
					</g>
					<g>
						<path fill="#FFFFFF" d="M749.2,575.5C749.2,575.5,749.2,575.5,749.2,575.5c0.1,0,0.3,0,0.4-0.1c0,0,0,0,0,0
							C749.5,575.4,749.4,575.5,749.2,575.5z"/>
					</g>
					<g>
						<path fill="#FFFFFF" d="M748.6,593.5l20.8,3.6c-0.1,0-0.3,0-0.4,0L748.6,593.5C748.6,593.5,748.6,593.5,748.6,593.5z"/>
					</g>
					<g>
						<path fill="#FFFFFF" d="M748.4,557.9c0,1.1,0.4,1.7,1,1.7c0,0,0,0,0,0C748.7,559.6,748.3,558.9,748.4,557.9L748.4,557.9z"/>
					</g>
					<g>
						<rect x="748.3" y="534.7" fill="#FFFFFF" width="0" height="23.2"/>
					</g>
					<g>
						<path fill="#FFFFFF" d="M772.3,517.7c0.9,0,1.6,1.1,1.6,2.9v23.2c0,1.3-0.6,2.7-1.5,3.2c-0.1,0.1-0.3,0.1-0.4,0.1
							c-0.6,0-1-0.7-1-1.8v-21.7l-8.2,4.5v21.2c0,1.3-0.6,2.7-1.5,3.2c-0.1,0.1-0.3,0.1-0.4,0.1c-0.6,0-1-0.7-1-1.8v-21.2l-8.8,4.8
							v21.7c0,1.3-0.6,2.7-1.4,3.2c-0.2,0.1-0.3,0.1-0.5,0.1c-0.6,0-1-0.7-1-1.7v-23.2c0-2.2,1-4.6,2.3-5.3l21-11.5
							C771.9,517.7,772.1,517.7,772.3,517.7z"/>
					</g>
					<g>
						<path fill="#FFFFFF" d="M750.7,529.4c-1.3,0.7-2.3,3.1-2.3,5.3h0C748.3,532.5,749.4,530.1,750.7,529.4
							C750.6,529.4,750.6,529.4,750.7,529.4z"/>
					</g>
					<g>
						<path fill="#FFFFFF" d="M748.1,611.5c0,1.3,0.4,2.1,1.1,2.1c0,0,0,0,0,0C748.6,613.6,748.1,612.8,748.1,611.5L748.1,611.5z"/>
					</g>
					<g>
						<path fill="#FFFFFF" d="M749.7,607.9c-0.9,0.5-1.6,2.1-1.6,3.6h0C748.1,610,748.8,608.4,749.7,607.9
							C749.7,607.9,749.7,607.9,749.7,607.9z"/>
					</g>
					<g>
						<path fill="#FFFFFF" d="M748.1,592.4c0,0.7,0.2,1.1,0.5,1.1c0,0,0,0,0,0C748.3,593.5,748.1,593.1,748.1,592.4L748.1,592.4z"/>
					</g>
					<g>
						<path fill="#FFFFFF" d="M748.6,590.8c-0.3,0.4-0.5,1-0.5,1.5h0C748.1,591.8,748.3,591.2,748.6,590.8
							C748.6,590.8,748.6,590.8,748.6,590.8z"/>
					</g>
					<g>
						<path fill="#FFFFFF" d="M748.1,573.4c0,1.3,0.4,2.1,1.1,2.1c0,0,0,0,0,0C748.6,575.5,748.1,574.7,748.1,573.4L748.1,573.4z"/>
					</g>
					<g>
						<path fill="#FFFFFF" d="M772.3,557.6c1,0,1.8,1.3,1.8,3.4c0,1.8-0.6,4-1.6,5.3l-17.8,22.6l17.8,3c1,0.2,1.6,1.7,1.6,3.5
							c0,2.5-1.2,5.3-2.6,6l-21.8,12c-0.2,0.1-0.3,0.1-0.5,0.1c-0.6,0-1.1-0.8-1.1-2.1c0-1.5,0.7-3.1,1.6-3.6l19.7-10.8l-20.8-3.6
							c-0.3,0-0.5-0.5-0.5-1.1c0-0.5,0.2-1.2,0.5-1.5l20.8-26.3l-19.7,10.8c-0.2,0.1-0.3,0.1-0.5,0.1c-0.6,0-1.1-0.8-1.1-2.1
							c0-1.5,0.7-3.1,1.6-3.6l21.8-12C771.8,557.7,772,557.6,772.3,557.6z"/>
					</g>
					<g>
						<path fill="#FFFFFF" d="M749.7,569.8c-0.9,0.5-1.6,2.1-1.6,3.6h0C748.1,571.9,748.8,570.3,749.7,569.8
							C749.7,569.8,749.7,569.8,749.7,569.8z"/>
					</g>
				</g>
				<g enable-background="new    ">
					<g>
						<path fill="#FFFFFF" d="M773.9,680.6c-0.2,0-0.4,0-0.5,0v-29.8c0.2,0,0.4,0,0.5,0C773.9,659.8,773.9,671.7,773.9,680.6z"/>
					</g>
					<g>
						<path fill="#FFFFFF" d="M773.9,650.8c-0.2,0-0.4,0-0.5,0c0-1.1-0.4-1.8-0.9-1.8c0.2,0,0.3,0,0.5,0
							C773.5,649,773.9,649.7,773.9,650.8z"/>
					</g>
					<g>
						<path fill="#FFFFFF" d="M772.4,649c0.5,0,0.9,0.7,0.9,1.8v29.8c0,1.3-0.6,2.7-1.4,3.2c-0.1,0.1-0.3,0.1-0.4,0.1
							c-0.5,0-0.9-0.7-0.9-1.8V670l-20.9,11.7c-0.2,0.1-0.3,0.1-0.5,0.1c-0.6,0-1.1-0.8-1.1-2.1c0-1.5,0.7-3.1,1.5-3.6l20.9-11.8
							v-12.1c0-1.3,0.6-2.7,1.4-3.2C772.2,649.1,772.3,649,772.4,649z"/>
					</g>
					<g>
						<path fill="#FFFFFF" d="M773,649c-0.1,0-0.3,0-0.4,0.1c-0.2,0-0.3,0-0.5,0c0.1-0.1,0.3-0.1,0.4-0.1
							C772.6,649,772.8,649,773,649z"/>
					</g>
					<g>
						<path fill="#FFFFFF" d="M772.4,634.3c-0.2,0-0.3,0-0.5,0c1-1.3,1.7-3.4,1.7-5.4c0-2.1-0.7-3.4-1.7-3.6c0.2,0,0.3,0,0.5,0
							c1,0.2,1.7,1.5,1.7,3.6C774.2,630.9,773.5,633,772.4,634.3z"/>
					</g>
					<g>
						<path fill="#FFFFFF" d="M772,683.9c-0.2,0-0.3,0-0.5,0c0.1,0,0.3,0,0.4-0.1c0.8-0.5,1.4-1.9,1.4-3.2c0.2,0,0.4,0,0.5,0
							c0,1.3-0.6,2.7-1.5,3.2C772.3,683.9,772.2,683.9,772,683.9z"/>
					</g>
					<g>
						<path fill="#FFFFFF" d="M771.1,682.2c0,1.1,0.4,1.8,1,1.8c-0.2,0-0.3,0-0.5,0c-0.5,0-0.9-0.7-0.9-1.8
							C770.8,682.2,770.9,682.2,771.1,682.2z"/>
					</g>
					<g>
						<path fill="#FFFFFF" d="M771.1,670v12.2c-0.2,0-0.3,0-0.5,0V670C770.8,670,770.9,670,771.1,670z"/>
					</g>
					<g>
						<path fill="#FFFFFF" d="M771.1,652.4v12.1c-0.2,0-0.3,0-0.5,0v-12.1C770.8,652.4,770.9,652.4,771.1,652.4z"/>
					</g>
					<g>
						<path fill="#FFFFFF" d="M772.5,649.2c-0.8,0.5-1.5,1.9-1.5,3.2c-0.2,0-0.3,0-0.5,0c0-1.3,0.6-2.7,1.4-3.2
							C772.2,649.2,772.4,649.2,772.5,649.2z"/>
					</g>
					<g>
						<path fill="#FFFFFF" d="M771.9,625.3c1,0.2,1.7,1.5,1.7,3.6c0,1.9-0.7,4.1-1.7,5.4l-21.5,27.6c-0.2,0.2-0.4,0.4-0.6,0.5
							c-0.1,0.1-0.3,0.1-0.4,0.1c-0.6,0-1.2-0.7-1.2-2.2c0-1.1,0.4-2.4,1-3.2l4.8-6v-22.2l-4.8-0.7c-0.6-0.1-1-1-1-2.1
							c0-1.7,0.8-3.4,1.6-3.9c0.2-0.1,0.3-0.1,0.5-0.1c0,0,0.1,0,0.1,0L771.9,625.3z M756.7,647.9l13.5-17l-13.5-1.9V647.9"/>
					</g>
					<g>
						<path fill="#FFFFFF" d="M770.6,630.9l-13.8,17c-0.1,0-0.1,0-0.2,0l13.5-17C770.3,630.9,770.5,630.9,770.6,630.9z"/>
					</g>
					<g>
						<path fill="#FFFFFF" d="M756.9,628.9l13.8,1.9c-0.2,0-0.3,0-0.5,0l-13.5-1.9C756.7,628.9,756.8,628.9,756.9,628.9z"/>
					</g>
					<g>
						<path fill="#FFFFFF" d="M756.9,647.9c-0.1,0-0.1,0-0.2,0v-18.9c0.1,0,0.1,0,0.2,0C756.9,634.6,756.9,642.2,756.9,647.9z"/>
					</g>
					<g>
						<path fill="#FFFFFF" d="M754,628.9v22.2c0,0-0.1,0-0.1,0v-22.2C753.9,628.9,754,628.9,754,628.9z"/>
					</g>
					<g>
						<path fill="#FFFFFF" d="M750.4,661.9C750.4,661.9,750.4,661.9,750.4,661.9l21.5-27.6c0.2,0,0.3,0,0.5,0
							C765.8,642.6,757,653.6,750.4,661.9z"/>
					</g>
					<g>
						<path fill="#FFFFFF" d="M772.4,625.3c-0.2,0-0.3,0-0.5,0l-21.5-3.3c0,0,0,0,0.1,0C757,623,765.8,624.3,772.4,625.3z"/>
					</g>
					<g>
						<path fill="#FFFFFF" d="M750.4,622C750.4,622,750.4,622,750.4,622c-0.1,0-0.1,0-0.1,0C750.3,622,750.3,622,750.4,622
							C750.4,622,750.4,622,750.4,622z"/>
					</g>
					<g>
						<path fill="#FFFFFF" d="M749.8,662.4C749.8,662.4,749.8,662.4,749.8,662.4c0.1-0.1,0.4-0.3,0.6-0.5c0,0,0,0,0.1,0
							C750.2,662.1,750,662.3,749.8,662.4z"/>
					</g>
					<g>
						<path fill="#FFFFFF" d="M750.3,622c-0.2,0-0.4,0.1-0.5,0.1c0,0,0,0,0,0C749.9,622.1,750.1,622,750.3,622
							C750.3,622,750.3,622,750.3,622z"/>
					</g>
					<g>
						<path fill="#FFFFFF" d="M749.7,681.8C749.7,681.8,749.7,681.8,749.7,681.8l20.9-11.7c0.2,0,0.3,0,0.5,0
							C764.7,673.5,756.8,679.9,749.7,681.8z"/>
					</g>
					<g>
						<path fill="#FFFFFF" d="M771.1,664.5l-21.4,11.8c0,0,0,0,0,0l20.9-11.8C770.8,664.5,770.9,664.5,771.1,664.5z"/>
					</g>
					<g>
						<path fill="#FFFFFF" d="M749.4,662.5C749.4,662.5,749.4,662.5,749.4,662.5c0.1,0,0.3,0,0.4-0.1c0,0,0,0,0,0
							C749.7,662.5,749.5,662.5,749.4,662.5z"/>
					</g>
					<g>
						<path fill="#FFFFFF" d="M749.2,681.9C749.2,681.9,749.2,681.9,749.2,681.9c0.1,0,0.3,0,0.4-0.1c0,0,0,0,0,0
							C749.5,681.9,749.4,681.9,749.2,681.9z"/>
					</g>
					<g>
						<path fill="#FFFFFF" d="M754,651.1l-4.9,6c0,0,0,0,0,0l4.8-6C753.9,651.1,754,651.1,754,651.1z"/>
					</g>
					<g>
						<path fill="#FFFFFF" d="M749.2,628.2l4.9,0.7c0,0-0.1,0-0.1,0L749.2,628.2C749.1,628.2,749.2,628.2,749.2,628.2z"/>
					</g>
					<g>
						<path fill="#FFFFFF" d="M748.1,679.8c0,1.3,0.4,2.1,1.1,2.1c0,0,0,0,0,0C748.6,681.9,748.1,681.1,748.1,679.8L748.1,679.8z"/>
					</g>
					<g>
						<path fill="#FFFFFF" d="M749.7,676.2c-0.9,0.5-1.6,2.1-1.6,3.6h0C748.1,678.3,748.8,676.7,749.7,676.2
							C749.7,676.2,749.7,676.2,749.7,676.2z"/>
					</g>
					<g>
						<path fill="#FFFFFF" d="M773,649c0.6,0,1,0.7,1,1.8v29.8c0,1.3-0.6,2.7-1.5,3.2c-0.1,0.1-0.3,0.1-0.4,0.1c-0.6,0-1-0.7-1-1.8
							V670l-21.4,11.7c-0.2,0.1-0.3,0.1-0.5,0.1c-0.6,0-1.1-0.8-1.1-2.1c0-1.5,0.7-3.1,1.6-3.6l21.4-11.8v-12.1
							c0-1.3,0.6-2.7,1.5-3.2C772.7,649.1,772.8,649,773,649z"/>
					</g>
					<g>
						<path fill="#FFFFFF" d="M748.1,660.3c0,1.5,0.6,2.2,1.2,2.2c0,0,0,0,0,0C748.7,662.5,748.1,661.8,748.1,660.3L748.1,660.3z"/>
					</g>
					<g>
						<path fill="#FFFFFF" d="M749.2,657.1c-0.7,0.8-1,2.1-1,3.2h0C748.1,659.2,748.5,657.9,749.2,657.1
							C749.1,657.1,749.2,657.1,749.2,657.1z"/>
					</g>
					<g>
						<path fill="#FFFFFF" d="M748.1,626.1c0,1.1,0.4,2,1,2.1c0,0,0,0,0,0C748.5,628.1,748.1,627.3,748.1,626.1L748.1,626.1z"/>
					</g>
					<g>
						<path fill="#FFFFFF" d="M749.8,622.2c-0.9,0.5-1.7,2.2-1.7,3.9h0C748.1,624.4,748.9,622.7,749.8,622.2
							C749.8,622.2,749.8,622.2,749.8,622.2z"/>
					</g>
					<g>
						<path fill="#FFFFFF" d="M772.4,625.3c1,0.2,1.7,1.5,1.7,3.6c0,1.9-0.7,4.1-1.7,5.4l-22,27.6c-0.2,0.2-0.4,0.4-0.6,0.5
							c-0.1,0.1-0.3,0.1-0.4,0.1c-0.6,0-1.2-0.7-1.2-2.2c0-1.1,0.4-2.4,1-3.2l4.9-6v-22.2l-4.9-0.7c-0.7-0.1-1-1-1-2.1
							c0-1.7,0.8-3.4,1.7-3.9c0.2-0.1,0.3-0.1,0.5-0.1c0,0,0.1,0,0.1,0L772.4,625.3z M756.9,647.9l13.8-17l-13.8-1.9V647.9"/>
					</g>
				</g>
				<g enable-background="new    ">
					<g>
						<path fill="#FFFFFF" d="M772.6,697.9c-0.2,0-0.3,0-0.5,0c0.8-0.5,1.5-2,1.5-3.5c0-1.4-0.5-2.2-1.1-2.2c0.2,0,0.4,0,0.5,0
							c0.6,0,1.1,0.8,1.1,2.2C774.2,695.9,773.5,697.5,772.6,697.9z"/>
					</g>
					<g>
						<path fill="#FFFFFF" d="M772.5,692.3c0.6,0,1.1,0.8,1.1,2.2c0,1.5-0.7,3.1-1.5,3.5l-22.4,12.6c-0.2,0.1-0.3,0.1-0.5,0.1
							c-0.6,0-1.1-0.8-1.1-2.1c0-1.5,0.7-3.1,1.5-3.6l22.4-12.6C772.3,692.3,772.4,692.3,772.5,692.3z"/>
					</g>
					<g>
						<path fill="#FFFFFF" d="M773.1,692.3c-0.1,0-0.3,0-0.4,0.1c-0.2,0-0.3,0-0.5,0c0.2-0.1,0.3-0.1,0.4-0.1
							C772.7,692.3,772.9,692.3,773.1,692.3z"/>
					</g>
					<g>
						<path fill="#FFFFFF" d="M749.7,710.5C749.7,710.5,749.7,710.5,749.7,710.5l22.4-12.6c0.2,0,0.3,0,0.5,0
							C765.7,701.7,757.3,708.6,749.7,710.5z"/>
					</g>
					<g>
						<path fill="#FFFFFF" d="M772.6,692.4L749.7,705c0,0,0,0,0,0l22.4-12.6C772.3,692.4,772.4,692.4,772.6,692.4z"/>
					</g>
					<g>
						<path fill="#FFFFFF" d="M749.2,710.7C749.2,710.7,749.2,710.7,749.2,710.7c0.1,0,0.3,0,0.4-0.1c0,0,0,0,0,0
							C749.5,710.6,749.4,710.7,749.2,710.7z"/>
					</g>
					<g>
						<path fill="#FFFFFF" d="M748.1,708.6c0,1.3,0.4,2.1,1.1,2.1c0,0,0,0,0,0C748.6,710.7,748.1,709.9,748.1,708.6L748.1,708.6z"/>
					</g>
					<g>
						<path fill="#FFFFFF" d="M749.7,705c-0.9,0.5-1.6,2.1-1.6,3.6h0C748.1,707,748.8,705.5,749.7,705
							C749.7,705,749.7,705,749.7,705z"/>
					</g>
					<g>
						<path fill="#FFFFFF" d="M773.1,692.3c0.6,0,1.1,0.8,1.1,2.2c0,1.5-0.7,3.1-1.5,3.5l-22.9,12.6c-0.2,0.1-0.3,0.1-0.5,0.1
							c-0.6,0-1.1-0.8-1.1-2.1c0-1.5,0.7-3.1,1.6-3.6l22.9-12.6C772.8,692.3,772.9,692.3,773.1,692.3z"/>
					</g>
				</g>
				<g enable-background="new    ">
					<g>
						<path fill="#FFFFFF" d="M769.1,749c-0.1,0-0.3,0-0.4,0c0.1,0,0.3,0,0.4-0.1c0.4-0.2,0.8-0.7,1.1-1.4c0.2,0,0.3,0,0.5,0
							c-0.3,0.6-0.7,1.1-1.1,1.4C769.4,749,769.3,749,769.1,749z"/>
					</g>
					<g>
						<path fill="#FFFFFF" d="M765.1,713.7c5.3,0,8.7,6.6,8.7,16.9c0,6.7-1.5,12.3-3.6,16.9c-0.3,0.6-0.7,1.1-1.1,1.4
							c-0.2,0.1-0.3,0.1-0.4,0.1c-0.6,0-1.1-0.7-1.1-1.9c0-0.7,0.1-1.5,0.5-2.2c1.8-3.6,2.9-8.6,2.9-12.8c0-7.7-2.6-12.5-6.7-12.5
							c-1.1,0-2.2,0.3-3.5,1c-5.9,3.3-10.2,13.1-10.2,22.9c0,4.2,1,7.8,2.9,9.6c0.3,0.3,0.5,0.9,0.5,1.6c0,1.5-0.8,3-1.5,3.5
							c-0.2,0.1-0.3,0.1-0.4,0.1c-0.2,0-0.4-0.1-0.6-0.3c-2-2.3-3.5-6.2-3.5-12.9c0-12.8,5.3-25.9,12.9-30.2
							C762.4,714.1,763.8,713.7,765.1,713.7z"/>
					</g>
					<g>
						<path fill="#FFFFFF" d="M768.1,747.1c0,1.2,0.5,1.9,1.1,1.9c-0.1,0-0.3,0-0.4,0c-0.6,0-1.1-0.7-1.1-1.9
							C767.8,747.1,767.9,747.1,768.1,747.1z"/>
					</g>
					<g>
						<path fill="#FFFFFF" d="M768.6,745c-0.3,0.7-0.5,1.5-0.5,2.2c-0.1,0-0.3,0-0.4,0c0-0.7,0.1-1.5,0.5-2.2
							C768.3,745,768.4,745,768.6,745z"/>
					</g>
					<g>
						<path fill="#FFFFFF" d="M770.7,747.6c-0.2,0-0.3,0-0.5,0c2.1-4.6,3.6-10.2,3.6-16.9c0-10.3-3.4-16.9-8.7-16.9
							c0.1,0,0.2,0,0.4,0c5.4,0,8.9,6.6,8.9,16.9C774.4,737.3,772.8,743,770.7,747.6z"/>
					</g>
					<g>
						<path fill="#FFFFFF" d="M764.7,719.7c4.1,0,6.8,4.8,6.8,12.5c0,4.1-1.2,9.2-3,12.8c-0.1,0-0.3,0-0.4,0
							c1.8-3.6,2.9-8.6,2.9-12.8c0-7.7-2.6-12.5-6.7-12.5C764.4,719.7,764.6,719.7,764.7,719.7z"/>
					</g>
					<g>
						<path fill="#FFFFFF" d="M761.1,720.7c-0.1,0-0.2,0-0.3,0c1.2-0.7,2.4-1,3.5-1c0.1,0,0.2,0,0.4,0
							C763.6,719.7,762.4,720,761.1,720.7z"/>
					</g>
					<g>
						<path fill="#FFFFFF" d="M765.5,713.7c-1.3,0-2.8,0.4-4.4,1.3c-0.1,0-0.2,0-0.3,0c1.5-0.9,3-1.3,4.3-1.3
							C765.2,713.7,765.4,713.7,765.5,713.7z"/>
					</g>
					<g>
						<path fill="#FFFFFF" d="M752.1,758.4C752.1,758.4,752.1,758.4,752.1,758.4c0.1,0,0.2,0,0.4-0.1c0.8-0.4,1.5-1.9,1.5-3.5
							c0-0.7-0.2-1.3-0.5-1.6c0,0,0.1,0,0.1,0c0.3,0.3,0.5,0.9,0.5,1.6c0,1.5-0.8,3-1.6,3.5C752.4,758.3,752.3,758.4,752.1,758.4z"
							/>
					</g>
					<g>
						<path fill="#FFFFFF" d="M751.5,758.1c0.2,0.2,0.4,0.3,0.6,0.3c0,0-0.1,0-0.1,0C751.8,758.4,751.6,758.3,751.5,758.1
							C751.5,758.1,751.5,758.1,751.5,758.1z"/>
					</g>
					<g>
						<path fill="#FFFFFF" d="M753.7,753.2c0,0-0.1,0-0.1,0c-1.8-1.8-2.9-5.3-2.9-9.6c0,0,0,0,0.1,0
							C750.7,747.8,751.8,751.4,753.7,753.2z"/>
					</g>
					<g>
						<path fill="#FFFFFF" d="M750.7,743.6C750.7,743.6,750.7,743.6,750.7,743.6c-0.1-9.8,4.2-19.6,10.1-22.9c0.1,0,0.2,0,0.3,0
							C755.1,724.1,750.7,733.9,750.7,743.6z"/>
					</g>
					<g>
						<path fill="#FFFFFF" d="M747.9,745.2c0,6.7,1.5,10.6,3.6,12.9c0,0-0.1,0-0.1,0C749.4,755.8,747.9,751.9,747.9,745.2
							L747.9,745.2z"/>
					</g>
					<g>
						<path fill="#FFFFFF" d="M761.1,715c-7.9,4.3-13.2,17.4-13.2,30.2h0c0-12.8,5.3-25.9,12.9-30.2C760.9,715,761,715,761.1,715z"
							/>
					</g>
					<g>
						<path fill="#FFFFFF" d="M765.5,713.7c5.4,0,8.9,6.6,8.9,16.9c0,6.7-1.5,12.3-3.6,16.9c-0.3,0.6-0.7,1.1-1.1,1.4
							c-0.2,0.1-0.3,0.1-0.5,0.1c-0.6,0-1.1-0.7-1.1-1.9c0-0.7,0.2-1.5,0.5-2.2c1.8-3.6,3-8.6,3-12.8c0-7.7-2.7-12.5-6.8-12.5
							c-1.1,0-2.3,0.3-3.6,1c-6.1,3.3-10.4,13.1-10.4,22.9c0,4.2,1,7.8,2.9,9.6c0.3,0.3,0.5,0.9,0.5,1.6c0,1.5-0.8,3-1.6,3.5
							c-0.2,0.1-0.3,0.1-0.5,0.1c-0.2,0-0.4-0.1-0.6-0.3c-2.1-2.3-3.6-6.2-3.6-12.9c0-12.8,5.4-25.9,13.2-30.2
							C762.7,714.1,764.1,713.7,765.5,713.7z"/>
					</g>
				</g>
				<g enable-background="new    ">
					<g>
						<path fill="#FFFFFF" d="M770.8,789.5c-0.2,0-0.3,0-0.5,0c1.9-4.4,3.1-9.9,3.3-15.8c0.4-7.8-1.5-13-4.7-13c0.2,0,0.3,0,0.4,0
							c3.3,0,5.2,5.2,4.8,13C774,779.6,772.7,785,770.8,789.5z"/>
					</g>
					<g>
						<path fill="#FFFFFF" d="M769.3,791c-0.1,0-0.3,0-0.4,0c0.1,0,0.2,0,0.3-0.1c0.4-0.2,0.8-0.7,1.2-1.4c0.2,0,0.3,0,0.5,0
							c-0.3,0.7-0.8,1.3-1.2,1.4C769.5,790.9,769.4,791,769.3,791z"/>
					</g>
					<g>
						<path fill="#FFFFFF" d="M769,760.6c3.2,0,5.1,5.2,4.7,13c-0.3,5.9-1.5,11.4-3.3,15.8c-0.3,0.7-0.8,1.3-1.2,1.4
							c-0.1,0-0.2,0.1-0.3,0.1c-0.6,0-1.1-0.8-1.1-2.1c0-0.5,0.2-1.2,0.4-1.8c1.6-4,2.5-8.5,2.7-12.6c0.2-4.8-0.8-7.9-2.7-7.9
							c-0.3,0-0.5,0.1-0.8,0.2c-5.6,2.4-3.7,28-13,32c-0.6,0.2-1.1,0.4-1.7,0.4c-2.9,0-5.3-3.7-4.8-14.1c0.3-6.8,1.8-12.6,3.9-17.3
							c0.3-0.7,0.8-1.2,1.2-1.4c0.1-0.1,0.2-0.1,0.4-0.1c0.6,0,1.1,0.7,1.1,2.1c0,0.5-0.1,1.2-0.4,1.8c-1.7,3.8-3.1,8.7-3.3,14
							c-0.3,6.9,1.3,9.1,2.9,9.1c0.3,0,0.6-0.1,0.9-0.2c6.4-2.7,4.1-28.3,13-32C768,760.7,768.5,760.6,769,760.6z"/>
					</g>
					<g>
						<path fill="#FFFFFF" d="M768.7,766.6c1.9,0,3,3.1,2.8,7.9c-0.2,4.2-1.1,8.6-2.8,12.6c-0.1,0-0.3,0-0.4,0
							c1.6-4,2.5-8.5,2.7-12.6c0.2-4.8-0.8-7.9-2.7-7.9C768.4,766.6,768.5,766.6,768.7,766.6z"/>
					</g>
					<g>
						<path fill="#FFFFFF" d="M768.7,787.1c-0.3,0.6-0.4,1.2-0.4,1.8c-0.1,0-0.3,0-0.4,0c0-0.5,0.2-1.2,0.4-1.8
							C768.4,787.1,768.5,787.1,768.7,787.1z"/>
					</g>
					<g>
						<path fill="#FFFFFF" d="M768.2,788.9c-0.1,1.3,0.5,2.1,1.1,2.1c-0.1,0-0.3,0-0.4,0c-0.6,0-1.1-0.8-1.1-2.1
							C768,788.9,768.1,788.9,768.2,788.9z"/>
					</g>
					<g>
						<path fill="#FFFFFF" d="M769.4,760.6c-0.5,0-1,0.1-1.5,0.3c-0.1,0-0.3,0-0.4,0c0.5-0.2,1-0.3,1.5-0.3
							C769.1,760.6,769.3,760.6,769.4,760.6z"/>
					</g>
					<g>
						<path fill="#FFFFFF" d="M767.8,766.8c-0.1,0-0.3,0-0.4,0c0.3-0.1,0.6-0.2,0.8-0.2c0.1,0,0.3,0,0.4,0
							C768.4,766.6,768.1,766.6,767.8,766.8z"/>
					</g>
					<g>
						<path fill="#FFFFFF" d="M767.9,761c-9.1,3.8-6.8,29.3-13.3,32c0,0-0.1,0-0.1,0c6.4-2.7,4.1-28.3,13-32
							C767.6,761,767.8,761,767.9,761z"/>
					</g>
					<g>
						<path fill="#FFFFFF" d="M754.6,798.8c0,0-0.1,0-0.1,0c9.3-4,7.4-29.6,13-32c0.1,0,0.3,0,0.4,0
							C762.1,769.2,764.1,794.8,754.6,798.8z"/>
					</g>
					<g>
						<path fill="#FFFFFF" d="M754.6,793c-0.3,0.1-0.6,0.2-0.9,0.2c0,0-0.1,0-0.1,0c0.3,0,0.6-0.1,0.9-0.2
							C754.5,793,754.6,793,754.6,793z"/>
					</g>
					<g>
						<path fill="#FFFFFF" d="M754.1,770.1c0,0-0.1,0-0.1,0c0.2-0.6,0.3-1.2,0.4-1.8c0.1-1.4-0.5-2.1-1.1-2.1c0,0,0.1,0,0.1,0
							c0.6,0,1.2,0.7,1.1,2.1C754.5,768.9,754.4,769.6,754.1,770.1z"/>
					</g>
					<g>
						<path fill="#FFFFFF" d="M753.4,766.3c-0.1,0-0.2,0-0.4,0.1c0,0-0.1,0-0.1,0c0.1-0.1,0.2-0.1,0.4-0.1
							C753.3,766.3,753.4,766.3,753.4,766.3z"/>
					</g>
					<g>
						<path fill="#FFFFFF" d="M752.8,799.2c0,0-0.1,0-0.1,0c0.6,0,1.1-0.1,1.7-0.4c0,0,0.1,0,0.1,0C754,799,753.4,799.2,752.8,799.2
							z"/>
					</g>
					<g>
						<path fill="#FFFFFF" d="M753,766.4c-0.4,0.2-0.9,0.6-1.2,1.4c0,0-0.1,0-0.1,0c0.3-0.7,0.8-1.2,1.2-1.4
							C752.9,766.4,753,766.4,753,766.4z"/>
					</g>
					<g>
						<path fill="#FFFFFF" d="M750.7,784.1C750.7,784.1,750.7,784.1,750.7,784.1c0.2-5.3,1.6-10.2,3.3-14c0,0,0.1,0,0.1,0
							C752.4,773.9,751,778.8,750.7,784.1z"/>
					</g>
					<g>
						<path fill="#FFFFFF" d="M753.7,793.2c0,0-0.1,0-0.1,0c-1.7,0-3.3-2.2-2.9-9.1c0,0,0,0,0.1,0C750.4,791,752,793.2,753.7,793.2z
							"/>
					</g>
					<g>
						<path fill="#FFFFFF" d="M751.8,767.7c-2.1,4.7-3.6,10.6-3.9,17.3h0C748.2,778.3,749.7,772.4,751.8,767.7
							C751.8,767.7,751.8,767.7,751.8,767.7z"/>
					</g>
					<g>
						<path fill="#FFFFFF" d="M747.8,788.7C747.8,788.7,747.8,788.7,747.8,788.7c0.2,7.6,2.4,10.5,5,10.5c0,0-0.1,0-0.1,0
							C750.2,799.2,748,796.3,747.8,788.7L747.8,788.7C747.8,788.7,747.8,788.7,747.8,788.7z"/>
					</g>
					<g>
						<path fill="#FFFFFF" d="M747.8,786.5C747.8,786.5,747.8,786.5,747.8,786.5c0-0.5,0-1,0-1.4h0
							C747.9,785.6,747.9,786,747.8,786.5z"/>
					</g>
					<g>
						<path fill="#FFFFFF" d="M769.4,760.6c3.3,0,5.2,5.2,4.8,13c-0.3,5.9-1.5,11.4-3.4,15.8c-0.3,0.7-0.8,1.3-1.2,1.4
							c-0.1,0-0.2,0.1-0.3,0.1c-0.6,0-1.1-0.8-1.1-2.1c0-0.5,0.2-1.2,0.4-1.8c1.7-4,2.6-8.5,2.8-12.6c0.2-4.8-0.9-7.9-2.8-7.9
							c-0.3,0-0.5,0.1-0.8,0.2c-5.7,2.4-3.7,28-13.3,32c-0.6,0.2-1.2,0.4-1.7,0.4c-3,0-5.4-3.7-4.9-14.1c0.3-6.8,1.8-12.6,3.9-17.3
							c0.3-0.7,0.8-1.2,1.2-1.4c0.1-0.1,0.2-0.1,0.4-0.1c0.6,0,1.2,0.7,1.1,2.1c0,0.5-0.1,1.2-0.4,1.8c-1.7,3.8-3.1,8.7-3.4,14
							c-0.3,6.9,1.3,9.1,3,9.1c0.3,0,0.6-0.1,0.9-0.2c6.6-2.7,4.2-28.3,13.3-32C768.4,760.7,768.9,760.6,769.4,760.6z"/>
					</g>
					<g>
						<path fill="#FFFFFF" d="M747.8,786.5C747.8,786.5,747.8,786.5,747.8,786.5c0,0.8,0,1.5,0,2.1l0,0c0,0,0,0,0,0
							C747.8,788,747.8,787.3,747.8,786.5L747.8,786.5C747.8,786.5,747.8,786.5,747.8,786.5z"/>
					</g>
				</g>
			</g>
			<g>
				<g enable-background="new    ">
					<g>
						<path fill="#FFFFFF" d="M942.4,265.9c-0.2,0-0.3,0-0.5,0c1-1.3,1.6-3.5,1.6-5.3c0-2.1-0.8-3.4-1.8-3.4c0.2,0,0.3,0,0.5,0
							c1,0,1.8,1.3,1.8,3.4C944,262.4,943.4,264.6,942.4,265.9z"/>
					</g>
					<g>
						<path fill="#FFFFFF" d="M941.5,301.1c-0.2,0-0.3,0-0.5,0c1.4-0.8,2.5-3.5,2.5-6c0-1.9-0.6-3.3-1.6-3.5c0.2,0,0.3,0,0.5,0
							c1,0.2,1.6,1.7,1.6,3.5C944,297.6,942.8,300.3,941.5,301.1z"/>
					</g>
					<g>
						<path fill="#FFFFFF" d="M941.7,257.2c1,0,1.8,1.3,1.8,3.4c0,1.8-0.6,4-1.6,5.3l-17.5,22.6l17.5,3.1c1,0.2,1.6,1.7,1.6,3.5
							c0,2.5-1.2,5.3-2.5,6l-21.4,12c-0.2,0.1-0.3,0.1-0.5,0.1c-0.6,0-1.1-0.8-1.1-2.1c0-1.5,0.7-3.1,1.5-3.6l19.3-10.8l-20.3-3.6
							c-0.3,0-0.5-0.5-0.5-1.1c0-0.5,0.2-1.2,0.5-1.5l20.3-26.3l-19.3,10.8c-0.2,0.1-0.3,0.1-0.5,0.1c-0.6,0-1.1-0.8-1.1-2.1
							c0-1.5,0.7-3.1,1.5-3.6l21.4-12C941.2,257.3,941.5,257.2,941.7,257.2z"/>
					</g>
					<g>
						<path fill="#FFFFFF" d="M942.2,257.2c-0.2,0-0.5,0.1-0.7,0.2c-0.2,0-0.3,0-0.5,0c0.2-0.1,0.5-0.2,0.7-0.2
							C941.9,257.2,942,257.2,942.2,257.2z"/>
					</g>
					<g>
						<path fill="#FFFFFF" d="M924.6,288.5c0,0-0.1,0-0.1,0l17.5-22.6c0.2,0,0.3,0,0.5,0C937.1,272.7,929.9,281.7,924.6,288.5z"/>
					</g>
					<g>
						<path fill="#FFFFFF" d="M942.4,291.5c-0.2,0-0.3,0-0.5,0l-17.5-3.1c0,0,0.1,0,0.1,0C929.9,289.4,937.1,290.6,942.4,291.5z"/>
					</g>
					<g>
						<path fill="#FFFFFF" d="M919.6,313.1C919.6,313.1,919.6,313.1,919.6,313.1l21.4-12c0.2,0,0.3,0,0.5,0
							C934.9,304.7,926.9,311.2,919.6,313.1z"/>
					</g>
					<g>
						<path fill="#FFFFFF" d="M939.3,296.7l-19.7,10.8c0,0,0,0,0,0l19.3-10.8C939,296.7,939.2,296.7,939.3,296.7z"/>
					</g>
					<g>
						<path fill="#FFFFFF" d="M939.3,264.1l-20.8,26.3c0,0,0,0,0,0l20.3-26.3C939,264.1,939.2,264.1,939.3,264.1z"/>
					</g>
					<g>
						<path fill="#FFFFFF" d="M919.6,274.9C919.6,274.9,919.6,274.9,919.6,274.9l19.3-10.8c0.2,0,0.3,0,0.4,0
							C933.4,267.4,926.1,273.3,919.6,274.9z"/>
					</g>
					<g>
						<path fill="#FFFFFF" d="M941.5,257.4l-21.8,12c0,0,0,0,0,0l21.4-12C941.1,257.4,941.3,257.4,941.5,257.4z"/>
					</g>
					<g>
						<path fill="#FFFFFF" d="M919.1,313.2C919.1,313.2,919.1,313.2,919.1,313.2c0.1,0,0.3,0,0.4-0.1c0,0,0,0,0,0
							C919.4,313.1,919.3,313.2,919.1,313.2z"/>
					</g>
					<g>
						<path fill="#FFFFFF" d="M919.1,275.1C919.1,275.1,919.1,275.1,919.1,275.1c0.1,0,0.3,0,0.4-0.1c0,0,0,0,0,0
							C919.4,275,919.3,275.1,919.1,275.1z"/>
					</g>
					<g>
						<path fill="#FFFFFF" d="M918.5,293.1l20.8,3.6c-0.1,0-0.3,0-0.4,0L918.5,293.1C918.5,293.1,918.5,293.1,918.5,293.1z"/>
					</g>
					<g>
						<path fill="#FFFFFF" d="M918,311.1c0,1.3,0.4,2.1,1.1,2.1c0,0,0,0,0,0C918.5,313.2,918,312.4,918,311.1
							C918,311.1,918,311.1,918,311.1z"/>
					</g>
					<g>
						<path fill="#FFFFFF" d="M919.6,307.5c-0.9,0.5-1.6,2.1-1.6,3.6c0,0,0,0,0,0C918,309.6,918.7,308,919.6,307.5
							C919.6,307.5,919.6,307.5,919.6,307.5z"/>
					</g>
					<g>
						<path fill="#FFFFFF" d="M918,292c0,0.7,0.2,1.1,0.5,1.1c0,0,0,0,0,0C918.2,293.1,918,292.7,918,292C918,292,918,292,918,292z"
							/>
					</g>
					<g>
						<path fill="#FFFFFF" d="M918.5,290.4c-0.3,0.4-0.5,1-0.5,1.5c0,0,0,0,0,0C918,291.5,918.2,290.8,918.5,290.4
							C918.5,290.4,918.5,290.4,918.5,290.4z"/>
					</g>
					<g>
						<path fill="#FFFFFF" d="M918,273c0,1.3,0.4,2.1,1.1,2.1c0,0,0,0,0,0C918.5,275.1,918,274.3,918,273C918,273,918,273,918,273z"
							/>
					</g>
					<g>
						<path fill="#FFFFFF" d="M919.6,269.4c-0.9,0.5-1.6,2.1-1.6,3.6c0,0,0,0,0,0C918,271.5,918.7,269.9,919.6,269.4
							C919.6,269.4,919.6,269.4,919.6,269.4z"/>
					</g>
					<g>
						<path fill="#FFFFFF" d="M942.2,257.2c1,0,1.8,1.3,1.8,3.4c0,1.8-0.6,4-1.6,5.3l-17.8,22.6l17.8,3.1c1,0.2,1.6,1.7,1.6,3.5
							c0,2.5-1.2,5.3-2.6,6l-21.8,12c-0.2,0.1-0.3,0.1-0.5,0.1c-0.6,0-1.1-0.8-1.1-2.1c0-1.5,0.7-3.1,1.6-3.6l19.7-10.8l-20.8-3.6
							c-0.3,0-0.5-0.5-0.5-1.1c0-0.5,0.2-1.2,0.5-1.5l20.8-26.3l-19.7,10.8c-0.2,0.1-0.3,0.1-0.5,0.1c-0.6,0-1.1-0.8-1.1-2.1
							c0-1.5,0.7-3.1,1.6-3.6l21.8-12C941.7,257.3,942,257.2,942.2,257.2z"/>
					</g>
				</g>
				<g enable-background="new    ">
					<g>
						<path fill="#FFFFFF" d="M942.5,349.8c-0.2,0-0.3,0-0.5,0c0.8-0.5,1.5-2.1,1.5-3.5c0-1.4-0.4-2.2-1.1-2.2c0.2,0,0.4,0,0.5,0
							c0.6,0,1.1,0.8,1.1,2.2C944.1,347.8,943.4,349.4,942.5,349.8z"/>
					</g>
					<g>
						<path fill="#FFFFFF" d="M942.5,313.3c0.6,0,1.1,0.8,1.1,2.2c0,1.5-0.7,3.1-1.5,3.5l-14,7.8c-4.6,2.6-7.5,8.6-7.5,16.8
							c0,6.3,1.7,9.4,4.5,9.4c0.9,0,1.9-0.3,3-0.9l14-7.8c0.2-0.1,0.3-0.1,0.4-0.1c0.6,0,1.1,0.8,1.1,2.2c0,1.5-0.7,3.1-1.5,3.5
							l-14,7.8c-1.5,0.8-2.8,1.2-4,1.2c-3.9,0-6.2-4.4-6.2-13.7c0-12.1,4-20.4,10.2-23.9l14-7.9
							C942.2,313.4,942.3,313.3,942.5,313.3z"/>
					</g>
					<g>
						<path fill="#FFFFFF" d="M943,344.1c-0.1,0-0.3,0-0.4,0.1c-0.2,0-0.3,0-0.5,0c0.2-0.1,0.3-0.1,0.4-0.1
							C942.6,344.1,942.8,344.1,943,344.1z"/>
					</g>
					<g>
						<path fill="#FFFFFF" d="M942.5,319c-0.2,0-0.3,0-0.5,0c0.8-0.5,1.5-2,1.5-3.5c0-1.4-0.4-2.2-1.1-2.2c0.2,0,0.4,0,0.5,0
							c0.6,0,1.1,0.8,1.1,2.2C944.1,317,943.4,318.5,942.5,319z"/>
					</g>
					<g>
						<path fill="#FFFFFF" d="M943,313.3c-0.1,0-0.3,0-0.5,0.1c-0.2,0-0.3,0-0.5,0c0.2-0.1,0.3-0.1,0.4-0.1
							C942.6,313.3,942.8,313.3,943,313.3z"/>
					</g>
					<g>
						<path fill="#FFFFFF" d="M942.5,344.3l-14.3,7.8c-0.1,0-0.1,0-0.2,0l14-7.8C942.2,344.3,942.4,344.3,942.5,344.3z"/>
					</g>
					<g>
						<path fill="#FFFFFF" d="M928.3,326.8c-0.1,0-0.1,0-0.2,0l14-7.8c0.2,0,0.3,0,0.5,0C938.3,321.3,933,325.6,928.3,326.8z"/>
					</g>
					<g>
						<path fill="#FFFFFF" d="M928.2,357.7c-0.1,0-0.1,0-0.2,0l14-7.8c0.2,0,0.3,0,0.5,0C938.2,352.2,933,356.5,928.2,357.7z"/>
					</g>
					<g>
						<path fill="#FFFFFF" d="M942.5,313.5l-14.3,7.9c-0.1,0-0.1,0-0.2,0l14-7.9C942.2,313.5,942.4,313.5,942.5,313.5z"/>
					</g>
					<g>
						<path fill="#FFFFFF" d="M928.3,352.1c-1.1,0.6-2.1,0.9-3,0.9c-0.1,0-0.1,0-0.2,0c0.9,0,1.9-0.3,3-0.9
							C928.1,352.1,928.2,352.1,928.3,352.1z"/>
					</g>
					<g>
						<path fill="#FFFFFF" d="M924.2,358.9c0,0-0.1,0-0.1,0c1.2,0,2.5-0.4,4-1.2c0.1,0,0.1,0,0.2,0
							C926.7,358.5,925.4,358.9,924.2,358.9z"/>
					</g>
					<g>
						<path fill="#FFFFFF" d="M925.2,353c-0.1,0-0.1,0-0.2,0c-2.8,0-4.5-3.1-4.5-9.4c0,0,0,0,0.1,0C920.6,349.9,922.4,353,925.2,353
							z"/>
					</g>
					<g>
						<path fill="#FFFFFF" d="M920.6,343.7C920.6,343.7,920.6,343.7,920.6,343.7c-0.1-8.2,2.8-14.3,7.4-16.8c0.1,0,0.1,0,0.2,0
							C923.6,329.4,920.6,335.4,920.6,343.7z"/>
					</g>
					<g>
						<path fill="#FFFFFF" d="M917.8,345.2c0,9.3,2.4,13.7,6.4,13.7c0,0-0.1,0-0.1,0C920.1,358.9,917.8,354.5,917.8,345.2z"/>
					</g>
					<g>
						<path fill="#FFFFFF" d="M928.2,321.3c-6.3,3.4-10.4,11.8-10.4,23.9c0-12.1,4-20.4,10.2-23.9
							C928.1,321.3,928.1,321.3,928.2,321.3z"/>
					</g>
					<g>
						<path fill="#FFFFFF" d="M943,313.3c0.6,0,1.1,0.8,1.1,2.2c0,1.5-0.7,3.1-1.5,3.5l-14.3,7.8c-4.7,2.6-7.6,8.6-7.6,16.8
							c0,6.3,1.7,9.4,4.6,9.4c0.9,0,1.9-0.3,3-0.9l14.3-7.8c0.2-0.1,0.3-0.1,0.4-0.1c0.6,0,1.1,0.8,1.1,2.2c0,1.5-0.7,3.1-1.5,3.5
							l-14.3,7.8c-1.5,0.8-2.9,1.2-4.1,1.2c-4,0-6.4-4.4-6.4-13.7c0-12.1,4.1-20.4,10.4-23.9l14.3-7.9
							C942.7,313.4,942.8,313.3,943,313.3z"/>
					</g>
				</g>
				<g enable-background="new    ">
					<g>
						<path fill="#FFFFFF" d="M939.9,392.6c-0.2,0-0.3,0-0.5,0c0.1,0,0.3,0,0.4-0.1c0.4-0.2,0.8-0.8,1.1-1.6c0.2,0,0.3,0,0.5,0
							c-0.3,0.8-0.7,1.3-1.2,1.6C940.2,392.5,940.1,392.6,939.9,392.6z"/>
					</g>
					<g>
						<path fill="#FFFFFF" d="M941.5,390.9c-0.2,0-0.3,0-0.5,0c1.7-4.6,2.7-10.1,2.7-15.8c0-7.3-2-12-5-12c0.1,0,0.3,0,0.4,0
							c3.1,0,5.1,4.7,5.1,12C944.2,380.8,943.2,386.3,941.5,390.9z"/>
					</g>
					<g>
						<path fill="#FFFFFF" d="M938.7,363.1c3,0,5,4.7,5,12c0,5.8-1,11.2-2.7,15.8c-0.3,0.8-0.7,1.3-1.1,1.6
							c-0.1,0.1-0.3,0.1-0.4,0.1c-0.6,0-1.1-0.7-1.1-1.9c0-0.5,0.1-1.2,0.3-1.8c1.5-4.1,2.2-8.6,2.2-12.7c0-4.5-1.1-7.2-2.9-7.2
							c-0.3,0-0.7,0.1-1.1,0.3c-5.6,3.2-2.4,27.8-11.8,33c-0.8,0.4-1.5,0.7-2.2,0.7c-2.8,0-5.1-3.4-5.1-13c0-6.6,1.2-12.5,3.1-17.4
							c0.3-0.8,0.7-1.3,1.1-1.5c0.2-0.1,0.3-0.1,0.5-0.1c0.6,0,1.1,0.6,1.1,1.9c0,0.5-0.1,1.2-0.3,1.8c-1.5,3.9-2.7,8.9-2.7,14
							c0,6.4,1.5,8.4,3.1,8.4c0.4,0,0.8-0.1,1.2-0.3c6.5-3.6,2.9-28,11.8-33C937.4,363.3,938.1,363.1,938.7,363.1z"/>
					</g>
					<g>
						<path fill="#FFFFFF" d="M938.8,390.7c0,1.2,0.5,1.9,1.1,1.9c-0.2,0-0.3,0-0.5,0c-0.6,0-1.1-0.7-1.1-1.9
							C938.5,390.7,938.7,390.7,938.8,390.7z"/>
					</g>
					<g>
						<path fill="#FFFFFF" d="M939.2,388.9c-0.2,0.6-0.3,1.3-0.3,1.8c-0.1,0-0.3,0-0.4,0c0-0.5,0.1-1.2,0.3-1.8
							C938.9,388.9,939,388.9,939.2,388.9z"/>
					</g>
					<g>
						<path fill="#FFFFFF" d="M938.4,369c1.8,0,3,2.8,3,7.2c0,4.1-0.7,8.5-2.2,12.7c-0.1,0-0.3,0-0.4,0c1.5-4.1,2.2-8.6,2.2-12.7
							c0-4.5-1.1-7.2-2.9-7.2C938.1,369,938.3,369,938.4,369z"/>
					</g>
					<g>
						<path fill="#FFFFFF" d="M937.3,369.3c-0.1,0-0.3,0-0.4,0c0.4-0.2,0.7-0.3,1.1-0.3c0.1,0,0.3,0,0.4,0
							C938.1,369,937.7,369.1,937.3,369.3z"/>
					</g>
					<g>
						<path fill="#FFFFFF" d="M939.1,363.1c-0.6,0-1.3,0.2-2,0.6c-0.1,0-0.3,0-0.4,0c0.7-0.4,1.3-0.6,1.9-0.6
							C938.8,363.1,939,363.1,939.1,363.1z"/>
					</g>
					<g>
						<path fill="#FFFFFF" d="M925.3,402.3c-0.1,0-0.1,0-0.2,0c9.3-5.2,6.1-29.8,11.8-33c0.1,0,0.3,0,0.4,0
							C931.6,372.5,934.9,397.1,925.3,402.3z"/>
					</g>
					<g>
						<path fill="#FFFFFF" d="M937.1,363.7c-9.1,5-5.5,29.4-12.1,33c0,0-0.1,0-0.2,0c6.5-3.6,2.9-28,11.8-33
							C936.9,363.7,937,363.7,937.1,363.7z"/>
					</g>
					<g>
						<path fill="#FFFFFF" d="M925.1,396.7c-0.4,0.2-0.8,0.3-1.2,0.3c0,0-0.1,0-0.1,0c0.4,0,0.8-0.1,1.2-0.3
							C925,396.7,925,396.7,925.1,396.7z"/>
					</g>
					<g>
						<path fill="#FFFFFF" d="M923,403c0,0-0.1,0-0.1,0c0.7,0,1.5-0.2,2.2-0.7c0.1,0,0.1,0,0.2,0C924.6,402.7,923.8,403,923,403z"/>
					</g>
					<g>
						<path fill="#FFFFFF" d="M923.4,374.6c0,0-0.1,0-0.1,0c0.2-0.6,0.3-1.2,0.3-1.8c0-1.3-0.5-1.9-1.1-1.9c0,0,0.1,0,0.1,0
							c0.6,0,1.1,0.6,1.1,1.9C923.8,373.4,923.7,374,923.4,374.6z"/>
					</g>
					<g>
						<path fill="#FFFFFF" d="M922.6,371c-0.2,0-0.3,0-0.5,0.1c0,0-0.1,0-0.1,0c0.2-0.1,0.3-0.1,0.5-0.1
							C922.6,371,922.6,371,922.6,371z"/>
					</g>
					<g>
						<path fill="#FFFFFF" d="M922.1,371.1c-0.4,0.2-0.8,0.7-1.2,1.5c0,0,0,0-0.1,0C921.2,371.8,921.6,371.3,922.1,371.1
							C922.1,371.1,922.1,371.1,922.1,371.1z"/>
					</g>
					<g>
						<path fill="#FFFFFF" d="M923.9,397c0,0-0.1,0-0.1,0c-1.6,0-3.1-2-3.1-8.4c0,0,0,0,0.1,0C920.6,395,922.2,397,923.9,397z"/>
					</g>
					<g>
						<path fill="#FFFFFF" d="M920.6,388.6C920.6,388.6,920.6,388.6,920.6,388.6c-0.1-5.1,1.1-10.1,2.7-14c0,0,0.1,0,0.1,0
							C921.9,378.5,920.6,383.5,920.6,388.6z"/>
					</g>
					<g>
						<path fill="#FFFFFF" d="M917.8,390c0,9.5,2.4,13,5.2,13c0,0-0.1,0-0.1,0C920.1,403,917.8,399.5,917.8,390z"/>
					</g>
					<g>
						<path fill="#FFFFFF" d="M921,372.6c-1.9,4.9-3.2,10.8-3.2,17.4C917.8,383.4,919.1,377.5,921,372.6
							C921,372.6,921,372.6,921,372.6z"/>
					</g>
					<g>
						<path fill="#FFFFFF" d="M939.1,363.1c3.1,0,5.1,4.7,5.1,12c0,5.8-1,11.2-2.7,15.8c-0.3,0.8-0.7,1.3-1.2,1.6
							c-0.1,0.1-0.3,0.1-0.4,0.1c-0.6,0-1.1-0.7-1.1-1.9c0-0.5,0.1-1.2,0.3-1.8c1.5-4.1,2.2-8.6,2.2-12.7c0-4.5-1.2-7.2-3-7.2
							c-0.3,0-0.7,0.1-1.1,0.3c-5.8,3.2-2.5,27.8-12,33c-0.8,0.4-1.5,0.7-2.3,0.7c-2.8,0-5.2-3.4-5.2-13c0-6.6,1.3-12.5,3.2-17.4
							c0.3-0.8,0.7-1.3,1.2-1.5c0.2-0.1,0.3-0.1,0.5-0.1c0.6,0,1.1,0.6,1.1,1.9c0,0.5-0.1,1.2-0.3,1.8c-1.6,3.9-2.8,8.9-2.8,14
							c0,6.4,1.6,8.4,3.2,8.4c0.4,0,0.8-0.1,1.2-0.3c6.6-3.6,3-28,12.1-33C937.8,363.3,938.5,363.1,939.1,363.1z"/>
					</g>
				</g>
				<g enable-background="new    ">
					<g>
						<path fill="#FFFFFF" d="M942.5,409.1c-0.2,0-0.3,0-0.5,0c0.8-0.5,1.5-2,1.5-3.5c0-1.4-0.5-2.2-1.1-2.2c0.2,0,0.4,0,0.5,0
							c0.6,0,1.1,0.8,1.1,2.2C944.1,407,943.4,408.6,942.5,409.1z"/>
					</g>
					<g>
						<path fill="#FFFFFF" d="M942.5,403.4c0.6,0,1.1,0.8,1.1,2.2c0,1.5-0.7,3.1-1.5,3.5l-22.4,12.6c-0.2,0.1-0.3,0.1-0.5,0.1
							c-0.6,0-1.1-0.8-1.1-2.1c0-1.5,0.7-3.1,1.5-3.6l22.4-12.6C942.2,403.4,942.3,403.4,942.5,403.4z"/>
					</g>
					<g>
						<path fill="#FFFFFF" d="M943,403.4c-0.1,0-0.3,0-0.4,0.1c-0.2,0-0.3,0-0.5,0c0.2-0.1,0.3-0.1,0.4-0.1
							C942.6,403.4,942.8,403.4,943,403.4z"/>
					</g>
					<g>
						<path fill="#FFFFFF" d="M919.6,421.6C919.6,421.6,919.6,421.6,919.6,421.6l22.4-12.6c0.2,0,0.3,0,0.5,0
							C935.7,412.8,927.2,419.7,919.6,421.6z"/>
					</g>
					<g>
						<path fill="#FFFFFF" d="M942.5,403.5l-22.9,12.6c0,0,0,0,0,0l22.4-12.6C942.2,403.5,942.4,403.5,942.5,403.5z"/>
					</g>
					<g>
						<path fill="#FFFFFF" d="M919.1,421.8C919.1,421.8,919.1,421.8,919.1,421.8c0.1,0,0.3,0,0.4-0.1c0,0,0,0,0,0
							C919.4,421.7,919.3,421.8,919.1,421.8z"/>
					</g>
					<g>
						<path fill="#FFFFFF" d="M918,419.7c0,1.3,0.4,2.1,1.1,2.1c0,0,0,0,0,0C918.5,421.8,918,421,918,419.7
							C918,419.7,918,419.7,918,419.7z"/>
					</g>
					<g>
						<path fill="#FFFFFF" d="M919.6,416.1c-0.9,0.5-1.6,2.1-1.6,3.6c0,0,0,0,0,0C918,418.2,918.7,416.6,919.6,416.1
							C919.6,416.1,919.6,416.1,919.6,416.1z"/>
					</g>
					<g>
						<path fill="#FFFFFF" d="M943,403.4c0.6,0,1.1,0.8,1.1,2.2c0,1.5-0.7,3.1-1.5,3.5l-22.9,12.6c-0.2,0.1-0.3,0.1-0.5,0.1
							c-0.6,0-1.1-0.8-1.1-2.1c0-1.5,0.7-3.1,1.6-3.6l22.9-12.6C942.7,403.4,942.8,403.4,943,403.4z"/>
					</g>
				</g>
				<g enable-background="new    ">
					<g>
						<path fill="#FFFFFF" d="M939.1,460.2c-0.1,0-0.3,0-0.4,0c0.1,0,0.3,0,0.4-0.1c0.4-0.2,0.8-0.7,1.1-1.3c0.2,0,0.3,0,0.5,0
							c-0.3,0.6-0.7,1.1-1.1,1.3C939.4,460.1,939.2,460.2,939.1,460.2z"/>
					</g>
					<g>
						<path fill="#FFFFFF" d="M935,424.9c5.3,0,8.7,6.6,8.7,16.9c0,6.7-1.5,12.3-3.6,16.9c-0.3,0.6-0.7,1.1-1.1,1.3
							c-0.2,0.1-0.3,0.1-0.4,0.1c-0.6,0-1.1-0.7-1.1-1.9c0-0.7,0.1-1.5,0.5-2.2c1.8-3.6,2.9-8.6,2.9-12.8c0-7.7-2.6-12.5-6.7-12.5
							c-1.1,0-2.2,0.3-3.5,1c-5.9,3.3-10.2,13.1-10.2,22.9c0,4.2,1,7.8,2.9,9.6c0.3,0.3,0.5,0.9,0.5,1.6c0,1.5-0.8,3-1.5,3.5
							c-0.2,0.1-0.3,0.1-0.4,0.1c-0.2,0-0.4-0.1-0.6-0.3c-2-2.3-3.5-6.2-3.5-12.9c0-12.8,5.3-25.9,13-30.2
							C932.3,425.3,933.7,424.9,935,424.9z"/>
					</g>
					<g>
						<path fill="#FFFFFF" d="M938,458.3c0,1.2,0.5,1.9,1.1,1.9c-0.1,0-0.3,0-0.4,0c-0.6,0-1.1-0.7-1.1-1.9
							C937.7,458.3,937.8,458.3,938,458.3z"/>
					</g>
					<g>
						<path fill="#FFFFFF" d="M938.5,456.1c-0.3,0.7-0.5,1.5-0.5,2.2c-0.1,0-0.3,0-0.4,0c0-0.7,0.1-1.5,0.5-2.2
							C938.2,456.1,938.3,456.1,938.5,456.1z"/>
					</g>
					<g>
						<path fill="#FFFFFF" d="M940.6,458.7c-0.2,0-0.3,0-0.5,0c2.1-4.6,3.6-10.2,3.6-16.9c0-10.3-3.4-16.9-8.7-16.9
							c0.1,0,0.2,0,0.4,0c5.4,0,8.9,6.6,8.9,16.9C944.3,448.5,942.7,454.1,940.6,458.7z"/>
					</g>
					<g>
						<path fill="#FFFFFF" d="M934.6,430.8c4.1,0,6.8,4.8,6.8,12.5c0,4.1-1.1,9.2-3,12.8c-0.1,0-0.3,0-0.4,0
							c1.8-3.6,2.9-8.6,2.9-12.8c0-7.7-2.6-12.5-6.7-12.5C934.4,430.8,934.5,430.8,934.6,430.8z"/>
					</g>
					<g>
						<path fill="#FFFFFF" d="M931,431.9c-0.1,0-0.2,0-0.3,0c1.2-0.7,2.4-1,3.5-1c0.1,0,0.2,0,0.3,0
							C933.5,430.8,932.3,431.2,931,431.9z"/>
					</g>
					<g>
						<path fill="#FFFFFF" d="M935.4,424.9c-1.3,0-2.8,0.4-4.4,1.3c-0.1,0-0.2,0-0.3,0c1.5-0.9,3-1.3,4.3-1.3
							C935.1,424.9,935.3,424.9,935.4,424.9z"/>
					</g>
					<g>
						<path fill="#FFFFFF" d="M922,469.5C922,469.5,922,469.5,922,469.5c0.1,0,0.2,0,0.4-0.1c0.8-0.4,1.5-1.9,1.5-3.5
							c0-0.7-0.2-1.3-0.5-1.6c0,0,0.1,0,0.1,0c0.3,0.3,0.5,0.9,0.5,1.6c0,1.5-0.8,3-1.6,3.5C922.3,469.5,922.2,469.5,922,469.5z"/>
					</g>
					<g>
						<path fill="#FFFFFF" d="M921.4,469.2c0.2,0.2,0.4,0.3,0.6,0.3c0,0-0.1,0-0.1,0C921.7,469.5,921.5,469.4,921.4,469.2
							C921.4,469.2,921.4,469.2,921.4,469.2z"/>
					</g>
					<g>
						<path fill="#FFFFFF" d="M923.6,464.3c0,0-0.1,0-0.1,0c-1.8-1.8-2.9-5.4-2.9-9.6c0,0,0,0,0.1,0
							C920.6,459,921.7,462.5,923.6,464.3z"/>
					</g>
					<g>
						<path fill="#FFFFFF" d="M920.6,454.8C920.6,454.8,920.6,454.8,920.6,454.8c-0.1-9.8,4.2-19.6,10.1-22.9c0.1,0,0.2,0,0.3,0
							C925,435.2,920.6,445,920.6,454.8z"/>
					</g>
					<g>
						<path fill="#FFFFFF" d="M917.8,456.3c0,6.7,1.5,10.6,3.6,12.9c0,0,0,0-0.1,0C919.3,466.9,917.8,463,917.8,456.3z"/>
					</g>
					<g>
						<path fill="#FFFFFF" d="M931,426.1c-7.9,4.3-13.2,17.4-13.2,30.2c0-12.8,5.3-25.9,13-30.2C930.9,426.1,930.9,426.1,931,426.1z
							"/>
					</g>
					<g>
						<path fill="#FFFFFF" d="M935.4,424.9c5.4,0,8.9,6.6,8.9,16.9c0,6.7-1.5,12.3-3.6,16.9c-0.3,0.6-0.7,1.1-1.1,1.3
							c-0.2,0.1-0.3,0.1-0.5,0.1c-0.6,0-1.1-0.7-1.1-1.9c0-0.7,0.2-1.5,0.5-2.2c1.8-3.6,3-8.6,3-12.8c0-7.7-2.7-12.5-6.8-12.5
							c-1.1,0-2.3,0.3-3.6,1c-6.1,3.3-10.4,13.1-10.4,22.9c0,4.2,1,7.8,2.9,9.6c0.3,0.3,0.5,0.9,0.5,1.6c0,1.5-0.8,3-1.6,3.5
							c-0.2,0.1-0.3,0.1-0.5,0.1c-0.2,0-0.4-0.1-0.6-0.3c-2.1-2.3-3.6-6.2-3.6-12.9c0-12.8,5.4-25.9,13.2-30.2
							C932.6,425.3,934.1,424.9,935.4,424.9z"/>
					</g>
				</g>
			</g>
		</g>
	</g>
</g>
</svg>
